<?xml version="1.0" standalone="no"?>
<!DOCTYPE svg PUBLIC "-//W3C//DTD SVG 1.1//EN" "http://www.w3.org/Graphics/SVG/1.1/DTD/svg11.dtd" >
<svg xmlns="http://www.w3.org/2000/svg">
<metadata>Generated by IcoMoon</metadata>
<defs>
<font id="icomoon" horiz-adv-x="1024">
<font-face units-per-em="1024" ascent="960" descent="-64" />
<missing-glyph horiz-adv-x="1024" />
<glyph unicode="&#x20;" d="" horiz-adv-x="512" />
<glyph unicode="&#xe600;" d="M810.667 810.667h-597.333c-47.147 0-85.333-38.187-85.333-85.333v-597.333c0-47.147 38.187-85.333 85.333-85.333h597.333c47.147 0 85.333 38.187 85.333 85.333v597.333c0 47.147-38.187 85.333-85.333 85.333zM384 213.334h-85.333v298.667h85.333v-298.667zM554.667 213.334h-85.333v426.667h85.333v-426.667zM725.333 213.334h-85.333v170.667h85.333v-170.667z" />
<glyph unicode="&#xe601;" d="M665.6 622.4v-139.2l15.040 32c25.92 55.36 83.2 96.96 139.2 100.8l24.96 1.6v144h-179.2v-139.2zM748.8 704c0-3.52 8.64-6.4 19.2-6.4 30.72 0 26.56-44.16-4.8-48.96-4.16-0.64-12.16-5.44-17.6-10.88-10.24-10.24-28.8-8-28.8 3.2 0 3.52 2.88 4.48 6.4 2.24s6.4-0.96 6.4 2.88c0 3.52-2.88 6.72-6.4 6.72-9.28 0-8 37.12 1.6 48 9.28 10.56 24 12.48 24 3.2zM792.96 586.88c-76.16-28.48-123.52-108.8-107.84-182.72 21.12-97.92 125.44-160.64 209.28-125.44l23.68 9.92 86.080-86.72c100.48-101.44 85.44-95.36 128.32-51.84l34.24 34.88-175.36 172.8 10.56 35.84c34.56 119.36-92.16 236.8-208.96 193.28zM889.6 512.96c64.32-34.24 61.44-132.16-4.8-163.52-77.44-37.12-157.76 38.72-125.12 117.44 21.76 53.12 79.040 73.28 129.92 46.080zM822.4 496.64c-49.92-22.080-61.44-79.36-23.36-113.6 39.36-35.2 45.76-28.16 45.76 52.16 0 38.72-0.64 70.4-1.6 70.080-0.96 0-10.24-3.84-20.8-8.64zM428.8 361.6v-201.6h179.2v403.2h-179.2v-201.6zM556.8 358.4v-147.2h-75.84l-1.28 294.4h77.12v-147.2zM665.6 270.4v-110.4h179.2v89.6h-24c-51.52 0.32-115.2 45.12-140.16 99.2l-15.040 32v-110.4zM194.56 359.040c-1.28-1.6-2.56-47.040-2.56-100.8v-98.24h179.2v201.6h-87.040c-47.68 0-88-1.28-89.6-2.56zM331.52 318.72c10.56-10.56 10.24-80-0.32-84.16-6.4-2.56-6.080-4.48 0.64-9.28 19.84-13.76-4.48-31.36-45.44-32.64-24.64-0.64-36.48 1.28-33.6 5.44 2.24 3.84-1.92 6.72-9.28 6.72-18.56 0-20.16 104-1.92 114.56 15.68 9.28 80.64 8.64 89.92-0.64z" horiz-adv-x="1280" />
<glyph unicode="&#xe602;" d="M585.143 173.714v91.429q0 8.009-5.157 13.129t-13.129 5.157h-54.857v292.571q0 8.009-5.157 13.129t-13.129 5.157h-182.857q-8.009 0-13.129-5.157t-5.157-13.129v-91.429q0-8.009 5.157-13.129t13.129-5.157h54.857v-182.857h-54.857q-8.009 0-13.129-5.157t-5.157-13.129v-91.429q0-8.009 5.157-13.129t13.129-5.157h256q8.009 0 13.129 5.157t5.157 13.129zM512 685.714v91.429q0 8.009-5.157 13.129t-13.129 5.157h-109.714q-8.009 0-13.129-5.157t-5.157-13.129v-91.429q0-8.009 5.157-13.129t13.129-5.157h109.714q8.009 0 13.129 5.157t5.157 13.129zM877.714 448q0-119.442-58.843-220.27t-159.707-159.707-220.27-58.843-220.27 58.843-159.707 159.707-58.843 220.27 58.843 220.27 159.707 159.707 220.27 58.843 220.27-58.843 159.707-159.707 58.843-220.27z" />
<glyph unicode="&#xe603;" d="M274.286 338.286q0 37.705-26.843 64.585t-64.585 26.843-64.585-26.843-26.843-64.585 26.843-64.585 64.585-26.843 64.585 26.843 26.843 64.585zM294.839 521.143h580.571l-50.871 203.995q-1.134 4.571-8.009 9.984t-11.995 5.413h-438.857q-5.157 0-11.995-5.413t-8.009-9.984zM1078.857 338.286q0 37.705-26.843 64.585t-64.585 26.843-64.585-26.843-26.843-64.585 26.843-64.585 64.585-26.843 64.585 26.843 26.843 64.585zM1170.286 393.143v-219.429q0-8.009-5.157-13.129t-13.129-5.157h-54.857v-73.143q0-45.714-32-77.714t-77.714-32-77.714 32-32 77.714v73.143h-585.143v-73.143q0-45.714-32-77.714t-77.714-32-77.714 32-32 77.714v73.143h-54.857q-8.009 0-13.129 5.157t-5.157 13.129v219.429q0 53.138 37.413 90.587t90.587 37.413h16.018l60.014 239.433q13.129 53.723 59.429 90.002t102.29 36.279h438.857q55.991 0 102.29-36.279t59.429-90.002l60.014-239.433h16.018q53.138 0 90.587-37.413t37.413-90.587z" horiz-adv-x="1170" />
<glyph unicode="&#xe604;" d="M206.877 866.553c-53.482-36.045-84.875-108.134-84.875-198.802 1.17-120.92 53.482-206.965 139.527-225.543l34.875-8.133v-427.856h232.536v174.402h116.268v-174.402h232.536v859.195l-194.15 5.822c-108.134 3.482-249.973 9.304-317.411 12.785-110.446 5.822-125.572 3.482-159.276-17.437zM468.495 861.901c17.437-9.304 44.178-30.223 60.445-47.66 25.571-26.741 29.052-43.008 32.563-132.535 6.963-173.232-38.356-222.062-206.965-222.062s-213.928 48.83-206.965 220.891c3.482 110.446 13.956 132.535 84.875 175.572 43.008 26.741 188.357 30.223 236.017 5.822zM645.208 692.151c0-91.838 0-93.008-29.052-93.008-27.911 0-29.052 3.482-29.052 67.438 0 36.045-3.482 77.912-6.963 93.008-6.963 22.089-3.482 25.571 29.052 25.571h36.045v-93.008zM819.61 692.151v-93.008h-116.268v186.017h116.268v-93.008zM645.208 401.481v-93.008h-116.268v186.017h116.268v-93.008zM819.61 401.481v-93.008h-116.268v186.017h116.268v-93.008zM470.806 378.251v-69.749h-116.268v126.742l50 4.652c26.741 2.311 52.312 4.652 58.134 5.822 4.652 1.17 8.133-29.052 8.133-67.438zM191.781 663.099v-29.052h325.544v58.134h-325.544v-29.052z" />
<glyph unicode="&#xe605;" d="M179.61 880.069c-55.208-37.215-87.625-111.616-87.625-205.239 1.2-124.811 55.208-213.636 144.033-232.828l36.016-8.397v-441.666h240.026v180.019h120.013v-180.019h240.026v886.93l-200.441 5.998c-111.616 3.599-258.048 9.596-327.651 13.195-114.015 5.998-129.609 3.599-164.425-17.993zM449.653 875.271c17.993-9.596 45.612-31.217 62.405-49.211 26.39-27.619 30.018-44.412 33.616-136.806 7.197-178.82-39.614-229.23-213.636-229.23s-220.833 50.41-213.636 228.030c3.599 114.015 14.395 136.806 87.625 181.219 44.412 27.619 194.414 31.217 243.624 5.998zM632.071 700.050c0-94.822 0-96.022-30.018-96.022-28.818 0-30.018 3.599-30.018 69.603 0 37.215-3.599 80.399-7.197 96.022-7.197 22.791-3.599 26.39 30.018 26.39h37.215v-96.022zM812.091 700.050v-96.022h-120.013v192.015h120.013v-96.022zM632.071 399.989v-96.022h-120.013v192.015h120.013v-96.022zM812.091 399.989v-96.022h-120.013v192.015h120.013v-96.022zM452.052 375.998v-72.002h-120.013v130.809l51.61 4.798c27.619 2.399 54.009 4.798 60.006 5.998 4.798 1.2 8.397-30.018 8.397-69.603zM212.027 790.045c-13.195-16.794-8.397-26.39 30.018-66.004l46.811-48.011-46.811-48.011c-44.412-45.612-45.612-49.211-26.39-68.403s22.791-17.993 68.403 26.39l48.011 46.811 48.011-46.811c45.612-44.412 49.211-45.612 68.403-26.39s17.993 22.791-26.39 68.403l-46.811 48.011 46.811 48.011c44.412 45.612 45.612 49.211 26.39 68.403s-22.791 17.993-68.403-26.39l-48.011-46.811-45.612 44.412c-51.61 50.41-54.009 51.61-74.401 26.39z" />
<glyph unicode="&#xe606;" d="M669.147 788.005l-303.433-303.433 303.433-303.433q10.862-10.862 10.862-25.71t-10.862-25.71l-94.866-94.866q-10.862-10.862-25.71-10.862t-25.71 10.862l-424.009 424.009q-10.862 10.862-10.862 25.71t10.862 25.71l424.009 424.009q10.862 10.862 25.71 10.862t25.71-10.862l94.866-94.866q10.862-10.862 10.862-25.71t-10.862-25.71z" horiz-adv-x="731" />
<glyph unicode="&#xe607;" d="M632.576 458.862l-424.009-424.009q-10.862-10.862-25.71-10.862t-25.71 10.862l-94.866 94.866q-10.862 10.862-10.862 25.71t10.862 25.71l303.433 303.433-303.433 303.433q-10.862 10.862-10.862 25.71t10.862 25.71l94.866 94.866q10.862 10.862 25.71 10.862t25.71-10.862l424.009-424.009q10.862-10.862 10.862-25.71t-10.862-25.71z" horiz-adv-x="731" />
<glyph unicode="&#xe608;" d="M741.705 204.581q0-22.857-16.018-38.839l-77.714-77.714q-16.018-16.018-38.839-16.018t-38.839 16.018l-168.009 168.009-168.009-168.009q-16.018-16.018-38.839-16.018t-38.839 16.018l-77.714 77.714q-16.018 16.018-16.018 38.839t16.018 38.839l168.009 168.009-168.009 168.009q-16.018 16.018-16.018 38.839t16.018 38.839l77.714 77.714q16.018 16.018 38.839 16.018t38.839-16.018l168.009-168.009 168.009 168.009q16.018 16.018 38.839 16.018t38.839-16.018l77.714-77.714q16.018-16.018 16.018-38.839t-16.018-38.839l-168.009-168.009 168.009-168.009q16.018-16.018 16.018-38.839z" horiz-adv-x="805" />
<glyph unicode="&#xe609;" d="M256 810.496c-84.992-36.864-112.64-91.136-112.64-224.256v-97.28h122.88v46.080c0 38.912 3.072 46.080 20.48 46.080 19.456 0 20.48-7.168 20.48-256v-256h409.6v256c0 248.832 1.024 256 20.48 256 17.408 0 20.48-7.168 20.48-40.96v-40.96h124.928l-4.096 105.472c-3.072 97.28-5.12 109.568-31.744 143.36-36.864 49.152-96.256 78.848-154.624 78.848-40.96 0-51.2-5.12-80.896-36.864-57.344-63.488-162.816-57.344-207.872 11.264-14.336 21.504-24.576 25.6-64.512 25.6-25.6-1.024-63.488-8.192-82.944-16.384z" />
<glyph unicode="&#xe60a;" d="M500.297 792.62l-76.683-155.707-28.994 28.994c-28.058 27.589-29.462 28.526-31.803 17.759-2.341-10.299-12.171-86.045-12.171-93.974 0-7.49-19.163-2.809-177.211 43.008-88.854 25.717-161.792 45.817-162.26 45.349s48.625-51.434 108.485-113.167c60.328-61.264 108.017-113.167 105.677-115.039-1.872-1.872-14.482-9.362-28.058-15.887-14.014-7.022-23.376-14.482-21.036-16.355 1.872-1.872 22.908-13.546 45.817-26.185 23.376-12.171 43.008-22.908 43.944-23.845 0.936-0.468-15.419-40.199-36.484-88.386-21.504-47.689-37.888-87.45-36.952-87.918 0.468-0.936 32.739 6.085 70.597 14.95s70.129 15.419 71.066 14.014c0.936-0.936 0-32.271-2.341-69.193-2.341-37.42-5.149-99.123-7.022-137.947l-2.809-70.129 22.908 42.072c12.171 23.376 28.058 51.434 34.143 63.137 6.554 11.703 27.589 50.030 46.285 85.109 29.93 56.115 35.079 63.605 41.604 58.924 4.213-3.277 26.185-22.908 49.562-43.476 22.908-20.568 47.221-42.072 53.307-47.689 6.554-5.617 12.171-9.83 12.639-9.362 0.936 0.468 3.745 32.739 6.554 71.066 2.809 38.795 6.554 71.534 8.426 72.938 1.872 1.872 63.137-18.695 136.543-45.349s134.203-48.625 135.607-48.625c1.404 0-43.008 45.349-98.187 100.528s-99.123 100.996-98.187 101.932c1.404 0.936 30.866 11.703 65.448 23.845 134.203 47.689 178.615 63.605 185.168 67.321 4.213 2.341-43.944 15.887-129.053 36.016-74.342 17.759-138.416 33.675-141.195 35.547-4.681 2.809-1.404 13.078 11.703 39.731 9.83 19.632 16.823 36.484 16.355 37.42-0.936 0.936-22.44-1.872-47.221-6.085s-46.285-6.554-47.221-5.617c-0.936 0.936-3.745 86.045-6.085 188.913l-4.213 187.041-76.683-155.707z" horiz-adv-x="936" />
<glyph unicode="&#xe60b;" d="M225.28 809.472c-21.504-7.168-40.96-34.816-40.96-56.32 0-25.6 36.864-59.392 64.512-59.392 52.224 0 75.776 64.512 37.888 102.4-20.48 20.48-33.792 23.552-61.44 13.312zM440.32 809.472c0-4.096 36.864-84.992 82.944-180.224 60.416-126.976 79.872-177.152 74.752-194.56-4.096-12.288-27.648-63.488-53.248-114.688-24.576-50.176-61.44-125.952-79.872-165.888l-33.792-74.752h89.088l64.512 133.12c34.816 73.728 66.56 133.12 69.632 133.12s34.816-60.416 69.632-133.12l62.464-133.12h93.184l-88.064 182.272c-48.128 99.328-88.064 186.368-88.064 191.488 0 6.144 37.888 88.064 83.968 183.296 45.056 95.232 82.944 175.104 82.944 177.152 0 1.024-19.456 3.072-44.032 3.072h-45.056l-59.392-128c-32.768-70.656-62.464-128-66.56-128s-34.816 57.344-67.584 128l-60.416 128h-43.008c-24.576 0-44.032-3.072-44.032-7.168zM168.96 650.752c-22.528-21.504-26.624-35.84-36.864-134.144-7.168-60.416-9.216-112.64-6.144-116.736 4.096-3.072 13.312-3.072 22.528 0 10.24 5.12 15.36 21.504 16.384 55.296 0 26.624 5.12 58.368 10.24 69.632 6.144 13.312 7.168-62.464 3.072-205.824-4.096-168.96-3.072-229.376 6.144-234.496 22.528-14.336 30.72 11.264 45.056 146.432 7.168 74.752 15.36 138.24 18.432 140.288 2.048 2.048 10.24-58.368 16.384-136.192 13.312-140.288 20.48-164.864 44.032-150.528 9.216 6.144 10.24 59.392 5.12 232.448-5.12 152.576-4.096 223.232 4.096 223.232 5.12 0 10.24-17.408 10.24-39.936 0-62.464 11.264-103.424 28.672-103.424 13.312 0 14.336 14.336 8.192 97.28-9.216 118.784-19.456 152.576-53.248 167.936-44.032 19.456-112.64 14.336-142.336-11.264z" />
<glyph unicode="&#xe60c;" d="M365.568 808.448c-22.528-25.6-21.504-76.8 1.024-97.28 25.6-22.528 76.8-21.504 97.28 1.024 22.528 25.6 21.504 76.8-1.024 97.28-25.6 22.528-76.8 21.504-97.28-1.024zM288.768 646.656c-57.344-28.672-161.792-134.144-172.032-173.056-7.168-28.672 2.048-48.128 22.528-44.032 7.168 2.048 35.84 30.72 62.464 64.512 46.080 56.32 98.304 98.304 108.544 87.040 10.24-10.24-12.288-184.32-32.768-250.88-15.36-52.224-35.84-89.088-72.704-135.168-53.248-66.56-62.464-91.136-34.816-102.4 22.528-8.192 130.048 100.352 164.864 167.936 16.384 29.696 32.768 53.248 36.864 51.2 4.096-1.024 38.912-55.296 76.8-119.808 49.152-82.944 75.776-118.784 91.136-120.832 38.912-6.144 32.768 27.648-29.696 163.84-62.464 135.168-74.752 188.416-51.2 229.376 7.168 12.288 15.36 5.12 44.032-38.912 35.84-55.296 56.32-66.56 72.704-38.912 6.144 11.264-10.24 50.176-57.344 138.24-36.864 67.584-74.752 129.024-84.992 136.192-27.648 19.456-87.040 14.336-144.384-14.336zM747.52 345.6c0-18.432-7.168-20.48-81.92-20.48h-81.92v-92.16h80.896c78.848 0 81.92-1.024 84.992-24.576 3.072-24.576 3.072-24.576 82.944 21.504l79.872 46.080-76.8 45.056c-41.984 24.576-79.872 45.056-82.944 45.056s-5.12-9.216-5.12-20.48z" />
<glyph unicode="&#xe60d;" d="M412.672 809.472c-4.096-11.264 1.024-22.528 15.36-31.744 30.72-20.48 28.672-58.368-4.096-79.872-21.504-15.36-55.296-62.464-55.296-80.896 0-3.072 66.56-5.12 148.48-5.12h149.504l-16.384 29.696c-8.192 16.384-28.672 39.936-46.080 52.224-36.864 26.624-40.96 62.464-8.192 83.968 14.336 9.216 19.456 20.48 15.36 31.744-5.12 14.336-21.504 17.408-99.328 17.408s-94.208-3.072-99.328-17.408zM358.4 529.92c0-19.456 7.168-20.48 153.6-20.48s153.6 1.024 153.6 20.48c0 19.456-7.168 20.48-153.6 20.48s-153.6-1.024-153.6-20.48zM358.4 432.64v-25.6h307.2v51.2h-307.2v-25.6zM360.448 215.552l3.072-141.312h143.36c134.144 0 143.36 1.024 153.6 21.504 6.144 11.264 9.216 71.68 7.168 140.288l-3.072 119.808h-307.2l3.072-140.288z" />
<glyph unicode="&#xe60e;" d="M415.744 819.712c-3.072-16.384-17.408-128-31.744-248.832-15.36-120.832-30.72-229.376-34.816-240.64-6.144-14.336-15.36 17.408-31.744 107.52-29.696 163.84-34.816 176.128-63.488 172.032-17.408-2.048-33.792-25.6-68.608-97.28l-46.080-95.232h-44.032c-44.032 0-44.032 0-44.032-35.84v-36.864l128 6.144 30.72 56.32 29.696 56.32 8.192-30.72c4.096-16.384 22.528-108.544 40.96-204.8 33.792-172.032 33.792-174.080 61.44-177.152 34.816-4.096 31.744-15.36 64.512 253.952 26.624 218.112 34.816 270.336 41.984 264.192 2.048-2.048 15.36-77.824 29.696-167.936 26.624-161.792 38.912-194.56 71.68-182.272 7.168 3.072 25.6 35.84 40.96 73.728 16.384 37.888 31.744 72.704 35.84 76.8 4.096 5.12 22.528-34.816 39.936-88.064 32.768-98.304 51.2-125.952 75.776-116.736 7.168 2.048 33.792 44.032 58.368 93.184l46.080 88.064h117.76v71.68h-71.68c-79.872 0-95.232-10.24-128-81.92-10.24-22.528-21.504-40.96-24.576-40.96s-22.528 47.104-41.984 105.472c-31.744 93.184-38.912 104.448-62.464 107.52-22.528 3.072-28.672-4.096-53.248-60.416-15.36-34.816-29.696-61.44-31.744-59.392-3.072 3.072-21.504 103.424-41.984 223.232-20.48 120.832-38.912 223.232-41.984 228.352-3.072 4.096-16.384 8.192-29.696 8.192-18.432 0-25.6-7.168-29.696-27.648z" />
<glyph unicode="&#xe60f;" d="M277.504 141.824h468.992v338.651c0 119.896-96.666 217.381-216.561 217.381h-35.84c-119.896 0-216.591-97.485-216.591-217.381v-338.651zM772.008 101.888h-519.987c-11.264 0-20.568-9.421-20.568-20.685v-77.619c0-11.264 9.216-20.392 20.568-20.392h519.987c11.264 0 20.568 9.128 20.568 20.392v77.619c0 11.264-9.216 20.685-20.568 20.685zM108.456 695.515l119.515-81.715c3.599-2.458 7.578-3.599 11.557-3.599 6.554 0 13.019 3.072 16.881 8.923l21.709 31.744c6.349 9.304 4.008 22.118-5.325 28.467l-119.515 81.715c-3.599 2.458-7.578 3.569-11.557 3.569-6.554 0-13.019-3.072-16.911-8.923l-21.709-31.744c-6.437-9.304-4.096-22.031 5.325-28.467zM770.341 616.229c4.008-5.939 10.445-9.128 17.115-9.128 3.891 0 7.899 1.112 11.352 3.482l120.422 80.399c9.421 6.232 11.995 19.046 5.617 28.379l-21.416 32.037c-4.008 5.939-10.445 9.128-17.115 9.128-3.891 0-7.899-1.112-11.352-3.482l-120.335-80.369c-9.421-6.232-11.995-19.046-5.617-28.379l21.299-32.037zM480.461 756.224c3.365-3.072 7.665-4.096 12.288-4.096h38.502c4.593 0 8.806 1.024 12.288 4.096 5.032 4.096 8.397 9.626 8.397 16.384v144.794c0 11.264-9.421 20.070-20.685 20.070h-38.502c-11.264 0-20.685-8.806-20.685-20.070v0-144.794c0-6.758 3.482-12.288 8.397-16.384z" />
<glyph unicode="&#xe610;" d="M778.24 770.56h-22.996c0.585 1.902 1.2 3.803 1.2 5.91 0 10.854-8.836 19.69-19.69 19.69s-19.69-8.836-19.69-19.69c0-2.107 0.585-4.008 1.2-5.91h-75.366c0.585 1.902 1.2 3.803 1.2 5.91-0.029 10.854-8.836 19.69-19.719 19.69-10.854 0-19.69-8.836-19.69-19.69 0-2.107 0.585-4.008 1.2-5.91h-75.396c0.585 1.902 1.2 3.803 1.2 5.91 0 10.854-8.806 19.69-19.69 19.69s-19.69-8.836-19.69-19.69c0-2.107 0.585-4.008 1.2-5.91h-75.396c0.585 1.902 1.2 3.803 1.2 5.91 0 10.854-8.836 19.69-19.69 19.69s-19.69-8.836-19.69-19.69c0-2.107 0.585-4.008 1.2-5.91h-75.366c0.614 1.902 1.2 3.803 1.2 5.91 0 10.884-8.806 19.69-19.69 19.69s-19.69-8.836-19.69-19.69c0-2.107 0.585-4.008 1.2-5.91h-23.025c-31.1 0-56.32-25.249-56.32-56.32v-532.48c0-31.071 25.22-56.32 56.32-56.32h468.904l119.896 119.925v468.875c0 31.071-25.249 56.32-56.32 56.32zM803.84 258.092l-6.378-6.378h-48.216c-22.557 0-40.96-18.432-40.96-40.96v-48.245l-6.378-6.349h-456.148c-14.102 0-25.6 11.498-25.6 25.6v512h583.68v-435.668zM484.849 311.164h54.301v81.51h81.481v54.301h-81.481v81.51h-54.301v-81.51h-81.481v-54.301h81.481zM512.029 218.039c111.236 0 201.787 90.522 201.787 201.816s-90.551 201.816-201.787 201.816c-111.294 0-201.816-90.522-201.816-201.816s90.522-201.816 201.816-201.816zM512.029 590.599c94.12 0 170.745-76.624 170.745-170.774s-76.624-170.774-170.745-170.774c-94.179 0-170.774 76.624-170.774 170.774s76.624 170.774 170.774 170.774z" />
<glyph unicode="&#xe611;" d="M672.007 767.985c-88.357 0-160.007-71.621-160.007-160.007v-95.993h-128v-128h128v-448.015h128v448.015h144.004l32.007 128h-176.011v95.993c0 17.671 14.336 32.007 32.007 32.007h160.007v128h-160.007z" />
<glyph unicode="&#xe612;" d="M838.839 742.839q16.018-16.018 27.429-43.447t11.447-50.286v-658.286q0-22.857-16.018-38.839t-38.839-16.018h-768q-22.857 0-38.839 16.018t-16.018 38.839v914.286q0 22.857 16.018 38.839t38.839 16.018h512q22.857 0 50.286-11.447t43.447-27.429zM585.143 882.286v-214.857h214.857q-5.705 16.567-12.581 23.442l-178.871 178.871q-6.839 6.839-23.442 12.581zM804.571 9.143v585.143h-237.714q-22.857 0-38.839 16.018t-16.018 38.839v237.714h-438.857v-877.714h731.429zM731.429 265.143v-182.857h-585.143v109.714l109.714 109.714 73.143-73.143 219.429 219.429zM256 374.857q-45.714 0-77.714 32t-32 77.714 32 77.714 77.714 32 77.714-32 32-77.714-32-77.714-77.714-32z" />
<glyph unicode="&#xe613;" d="M838.839 742.839q16.018-16.018 27.429-43.447t11.447-50.286v-658.286q0-22.857-16.018-38.839t-38.839-16.018h-768q-22.857 0-38.839 16.018t-16.018 38.839v914.286q0 22.857 16.018 38.839t38.839 16.018h512q22.857 0 50.286-11.447t43.447-27.429zM585.143 882.286v-214.857h214.857q-5.705 16.567-12.581 23.442l-178.871 178.871q-6.839 6.839-23.442 12.581zM804.571 9.143v585.143h-237.714q-22.857 0-38.839 16.018t-16.018 38.839v237.714h-438.857v-877.714h731.429zM438.857 521.143q29.696 0 51.419-21.723t21.723-51.419v-219.429q0-29.696-21.723-51.419t-51.419-21.723h-219.429q-29.696 0-51.419 21.723t-21.723 51.419v219.429q0 29.696 21.723 51.419t51.419 21.723h219.429zM720.018 520.009q11.447-4.571 11.447-17.152v-329.143q0-12.581-11.447-17.152-4.571-1.134-6.839-1.134-8.009 0-13.129 5.157l-151.442 151.991v51.419l151.442 151.991q5.157 5.157 13.129 5.157 2.304 0 6.839-1.134z" />
<glyph unicode="&#xe614;" d="M561.152 804.352c-24.576-36.864-23.552-51.2 7.168-96.256 20.48-30.72 26.624-33.792 31.744-19.456 4.096 9.216 2.048 33.792-4.096 54.272-7.168 20.48-13.312 49.152-14.336 63.488l-3.072 24.576-17.408-26.624zM453.632 750.080c-28.672-52.224-26.624-91.136 8.192-157.696 31.744-59.392 32.768-66.56 19.456-91.136-20.48-34.816-32.768-36.864-64.512-12.288-21.504 17.408-27.648 30.72-27.648 62.464 0 21.504-5.12 39.936-10.24 39.936-27.648 0-69.632-32.768-81.92-62.464-12.288-28.672-11.264-38.912 4.096-79.872 36.864-94.208 41.984-120.832 27.648-138.24-19.456-23.552-41.984-20.48-75.776 12.288l-30.72 27.648 6.144-68.608c10.24-136.192 92.16-212.992 227.328-212.992 123.904 0 216.064 74.752 241.664 192.512 13.312 65.536 51.2 140.288 75.776 149.504 9.216 3.072 13.312 10.24 10.24 16.384-9.216 15.36-63.488 12.288-95.232-4.096l-28.672-14.336 4.096 70.656c5.12 86.016-6.144 107.52-81.92 150.528-65.536 37.888-98.304 71.68-109.568 110.592-7.168 27.648-8.192 28.672-18.432 9.216zM520.192 327.168c57.344-36.864 71.68-129.024 26.624-164.864-49.152-38.912-141.312-21.504-154.624 28.672-11.264 40.96-4.096 64.512 28.672 98.304 16.384 17.408 29.696 39.936 29.696 50.176 0 20.48 27.648 15.36 69.632-12.288z" />
<glyph unicode="&#xe615;" d="M508.928 693.76c3.072-11.264 9.216-20.48 14.336-20.48 11.264 0 11.264 3.072 3.072 24.576-9.216 23.552-23.552 20.48-17.408-4.096zM542.72 664.064c0-20.48-3.072-22.528-12.288-13.312-19.456 19.456-30.72 14.336-18.432-8.192 12.288-23.552 38.912-26.624 47.104-6.144 3.072 8.192 1.024 23.552-5.12 33.792-9.216 16.384-10.24 15.36-11.264-6.144zM273.408 599.552c13.312-12.288 25.6-19.456 29.696-15.36 10.24 10.24-16.384 37.888-34.816 37.888-13.312 0-12.288-4.096 5.12-22.528zM571.392 603.648c-3.072-9.216-1.024-26.624 3.072-37.888 6.144-15.36 8.192-11.264 8.192 18.432 1.024 40.96-4.096 49.152-11.264 19.456zM331.776 584.192c5.12-31.744 4.096-32.768-19.456-23.552-35.84 13.312-33.792-7.168 2.048-23.552 21.504-9.216 27.648-9.216 31.744 1.024 2.048 7.168 8.192 10.24 13.312 7.168 12.288-8.192 0 24.576-19.456 51.2-13.312 19.456-14.336 18.432-8.192-12.288zM522.24 593.408c0-5.12 9.216-17.408 20.48-27.648 23.552-21.504 27.648-4.096 4.096 19.456-17.408 18.432-24.576 20.48-24.576 8.192zM389.12 541.184c0-21.504 39.936-74.752 40.96-54.272 0 15.36-28.672 73.728-35.84 73.728-3.072 0-5.12-9.216-5.12-19.456zM593.92 522.752c0-28.672 3.072-34.816 10.24-23.552 13.312 20.48 13.312 48.128 0 56.32-6.144 4.096-10.24-9.216-10.24-32.768zM532.48 531.968c0-5.12 11.264-19.456 25.6-32.768 28.672-26.624 33.792-16.384 9.216 18.432-15.36 22.528-34.816 30.72-34.816 14.336zM698.368 503.296c2.048-11.264 22.528-23.552 54.272-31.744 92.16-26.624 120.832-76.8 66.56-116.736-94.208-68.608-438.272-68.608-532.48 0-28.672 20.48-37.888 56.32-20.48 77.824 8.192 10.24 8.192 15.36-1.024 21.504-7.168 4.096-20.48-2.048-32.768-17.408-16.384-20.48-18.432-35.84-14.336-86.016 14.336-185.344 153.6-291.84 362.496-279.552 180.224 11.264 291.84 114.688 307.2 285.696 5.12 57.344 4.096 61.44-26.624 90.112-28.672 26.624-126.976 72.704-155.648 72.704-6.144 0-9.216-7.168-7.168-16.384zM327.68 504.32c0-7.168 58.368-35.84 73.728-35.84 20.48 1.024-32.768 40.96-54.272 40.96-10.24 0-19.456-2.048-19.456-5.12zM450.56 476.672c0-14.336 9.216-36.864 21.504-50.176l20.48-24.576-5.12 35.84c-4.096 19.456-13.312 41.984-21.504 51.2-13.312 13.312-15.36 11.264-15.36-12.288zM561.152 455.168c24.576-41.984 27.648-52.224 13.312-44.032-10.24 7.168-18.432-29.696-13.312-62.464 2.048-15.36 10.24-23.552 22.528-23.552 14.336 0 18.432 5.12 14.336 18.432-5.12 14.336-3.072 14.336 10.24-2.048 21.504-26.624 21.504 1.024 1.024 28.672-8.192 11.264-15.36 31.744-15.36 46.080 0 29.696-6.144 39.936-35.84 62.464-18.432 14.336-18.432 12.288 3.072-23.552zM608.256 463.36c-6.144-24.576 0-45.056 10.24-34.816 11.264 11.264 17.408 60.416 7.168 60.416-6.144 0-13.312-11.264-17.408-25.6zM378.88 443.904c0-7.168 46.080-33.792 71.68-40.96l25.6-7.168-28.672 25.6c-23.552 22.528-68.608 36.864-68.608 22.528zM507.904 432.64c-3.072-9.216 1.024-33.792 10.24-54.272 14.336-33.792 17.408-35.84 24.576-17.408 4.096 12.288 2.048 32.768-8.192 51.2-19.456 39.936-19.456 39.936-26.624 20.48zM631.808 415.232c-15.36-38.912-16.384-49.152-6.144-54.272 12.288-8.192 22.528 18.432 17.408 48.128-4.096 20.48-5.12 20.48-11.264 6.144zM430.080 381.44c0-9.216 65.536-46.080 81.92-46.080 23.552 1.024-37.888 51.2-62.464 51.2-10.24 0-19.456-2.048-19.456-5.12zM645.12 355.84c-9.216-16.384-8.192-20.48 5.12-20.48 8.192 0 15.36 9.216 15.36 20.48s-2.048 20.48-5.12 20.48c-2.048 0-9.216-9.216-15.36-20.48z" />
<glyph unicode="&#xe616;" d="M531.456 776.704c-23.552-18.432-23.552-21.504-10.24-68.608 8.192-27.648 14.336-58.368 15.36-67.584 1.024-25.6 13.312-22.528 32.768 7.168 15.36 23.552 15.36 28.672 0 67.584-9.216 23.552-14.336 51.2-11.264 61.44 8.192 24.576 3.072 24.576-26.624 0zM419.84 685.568c0-9.216-9.216-32.768-21.504-52.224-25.6-41.984-22.528-70.656 10.24-91.136 22.528-15.36 23.552-15.36 17.408 4.096-3.072 11.264 3.072 35.84 15.36 59.392s18.432 49.152 15.36 62.464c-7.168 28.672-36.864 43.008-36.864 17.408zM665.6 691.712c0-9.216-15.36-34.816-34.816-58.368-35.84-43.008-38.912-70.656-10.24-94.208 11.264-9.216 14.336-8.192 14.336 6.144 0 10.24 14.336 33.792 30.72 53.248 33.792 38.912 37.888 61.44 15.36 91.136-12.288 16.384-14.336 17.408-15.36 2.048zM404.48 482.816c-120.832-25.6-193.536-59.392-238.592-111.616-76.8-87.040-22.528-184.32 137.216-242.688 51.2-19.456 81.92-22.528 203.776-23.552 161.792 0 224.256 13.312 305.152 67.584 194.56 129.024 10.24 318.464-305.152 315.392-45.056-1.024-91.136-3.072-102.4-5.12zM710.656 431.616c70.656-26.624 129.024-83.968 129.024-124.928 0-105.472-209.92-186.368-407.552-156.672-93.184 14.336-197.632 60.416-223.232 98.304-50.176 76.8 10.24 154.624 151.552 194.56 76.8 21.504 281.6 14.336 350.208-11.264zM403.456 427.52c-57.344-11.264-144.384-56.32-157.696-80.896-48.128-90.112 55.296-163.84 242.688-173.056 162.816-7.168 286.72 38.912 306.176 115.712 24.576 98.304-197.632 176.128-391.168 138.24zM660.48 392.704c93.184-38.912 112.64-94.208 52.224-147.456-96.256-83.968-372.736-64.512-421.888 29.696-24.576 48.128 10.24 91.136 100.352 123.904 66.56 23.552 205.824 20.48 269.312-6.144zM442.368 385.536c-58.368-11.264-104.448-39.936-111.616-69.632-14.336-58.368 57.344-98.304 176.128-98.304 45.056 0 94.208 3.072 109.568 7.168 36.864 11.264 90.112 57.344 90.112 78.848 0 29.696-43.008 60.416-107.52 77.824-66.56 16.384-90.112 17.408-156.672 4.096zM612.352 345.6c45.056-27.648 45.056-64.512 0-88.064-63.488-32.768-201.728-16.384-228.352 26.624-12.288 19.456 7.168 53.248 38.912 66.56 50.176 22.528 149.504 19.456 189.44-5.12zM453.632 333.312c-28.672-14.336-30.72-45.056-4.096-59.392 47.104-24.576 158.72-5.12 152.576 27.648-7.168 37.888-97.28 56.32-148.48 31.744z" />
<glyph unicode="&#xe617;" d="M1021.835 110.607c0-114.659-257.024-174.607-510.917-174.607-253.952 0-510.917 59.977-510.917 174.607 0 94.735 165.215 139.001 263.695 156.935l11.644-63.722c-159.188-28.935-210.651-75.337-210.651-93.213 0-38.678 169.487-109.948 446.288-109.948s446.201 71.153 446.201 109.948c0 18.959-44.032 62.961-210.622 93.213l11.586 63.722c174.928-31.949 263.695-84.641 263.695-156.935zM510.917 71.812c0 0-258.692 405.211-258.692 629.497 0 142.277 116.414 258.692 258.692 258.692 142.248 0 258.692-116.414 258.692-258.692 0-219.897-258.692-629.497-258.692-629.497zM510.917 615.088c47.426 0 86.221 38.795 86.221 86.221s-38.795 86.221-86.221 86.221c-47.484 0-86.221-38.795-86.221-86.221s38.795-86.221 86.221-86.221z" />
<glyph unicode="&#xe618;" d="M204.8 448v-378.88h153.6v337.92h307.2v-337.92h153.6v757.76h-153.6v-296.96h-307.2v296.96h-153.6v-378.88z" />
<glyph unicode="&#xe619;" d="M445.44 761.344c-89.088-89.088 25.6-227.328 124.928-153.6 77.824 58.368 38.912 178.176-58.368 178.176-30.72 0-48.128-6.144-66.56-24.576zM289.792 641.536c-50.176-18.432-55.296-87.040-8.192-117.76 41.984-27.648 97.28 4.096 97.28 56.32 0 45.056-47.104 76.8-89.088 61.44zM696.32 644.608c-68.608-21.504-67.584-108.544 1.024-130.048 26.624-9.216 68.608 18.432 76.8 51.2 11.264 45.056-34.816 92.16-77.824 78.848zM143.36 546.304c-6.144-8.192-10.24-25.6-8.192-38.912 2.048-19.456 9.216-23.552 38.912-23.552s36.864 4.096 38.912 23.552c4.096 28.672-14.336 53.248-38.912 53.248-10.24 0-23.552-7.168-30.72-14.336zM819.2 546.304c-6.144-8.192-10.24-25.6-8.192-38.912 2.048-19.456 9.216-23.552 38.912-23.552s36.864 4.096 38.912 23.552c4.096 28.672-14.336 53.248-38.912 53.248-10.24 0-23.552-7.168-30.72-14.336zM435.2 530.944c-73.728-45.056-87.040-88.064-87.040-279.552v-141.312h327.68v141.312c0 192.512-17.408 244.736-94.208 284.672-38.912 20.48-109.568 17.408-146.432-5.12zM257.024 464.384c-43.008-23.552-51.2-54.272-52.224-177.152v-115.712h110.592l4.096 136.192c3.072 73.728 8.192 143.36 13.312 153.6 6.144 14.336 2.048 17.408-21.504 17.408-16.384-1.024-40.96-7.168-54.272-14.336zM691.2 461.312c5.12-10.24 10.24-79.872 13.312-153.6l4.096-136.192h110.592v112.64c0 64.512-5.12 122.88-12.288 138.24-14.336 31.744-56.32 56.32-96.256 56.32-21.504 0-25.6-3.072-19.456-17.408zM118.784 415.232c-11.264-16.384-16.384-47.104-16.384-107.52v-84.992h71.68v84.992c0 46.080 3.072 94.208 6.144 107.52 5.12 19.456 2.048 22.528-19.456 22.528-15.36 0-32.768-9.216-41.984-22.528zM843.776 415.232c3.072-13.312 6.144-61.44 6.144-107.52v-84.992h71.68v84.992c0 96.256-15.36 130.048-58.368 130.048-21.504 0-24.576-3.072-19.456-22.528z" />
<glyph unicode="&#xe61a;" d="M499.215 788.465c-8.543-11.937-6.817-12.815 53.775-23.025 110.065-19.632 198.832-81.072 244.063-169.808 97.28-193.712-17.935-414.72-237.217-455.68-135.695-24.752-288.417 63.137-337.92 195.408-35.84 93.857-19.632 233.823 35.84 304.625 16.208 21.328 17.935 21.328 33.265 7.695 21.328-18.783 23.903-15.36 26.448 35.84l2.575 41.808-44.383 2.575c-47.777 2.575-52.048-0.848-32.417-27.297 10.24-13.663 8.543-19.632-12.815-49.503-40.112-54.623-55.472-111.792-55.472-203.103 0-73.377 2.545-87.040 26.448-137.392 46.080-97.28 120.305-162.143 215.888-190.288 176.625-52.048 372.912 54.623 427.535 231.248 43.535 140.815-5.968 286.72-128 378.88-65.712 49.503-201.377 85.343-217.615 58.017zM496.64 348.145c1.697-83.617 5.12-117.76 13.663-120.335 7.665-2.545 10.24 22.177 10.24 104.097v107.52h110.943c93.008 0 110.943 1.697 110.943 12.815s-19.632 12.815-123.728 12.815h-124.577l2.545-116.912z" />
<glyph unicode="&#xe61b;" d="M485.376 848.911c-9.216-7.665-51.2-44.559-93.711-80.896-41.984-36.864-128.527-111.616-191.985-166.415-166.912-143.887-199.68-174.080-199.68-183.793 0-4.593 10.767-20.48 23.552-35.313 18.432-20.977 26.624-26.624 38.415-26.624 12.815 0 47.104 27.648 202.225 162.289l187.392 162.289 40.463 80.896c22.001 44.529 40.433 83.968 40.433 88.064 0 7.168-10.737 13.312-23.055 13.312-3.569 0-14.336-6.144-24.049-13.809zM754.161 796.16c-13.809-5.617-16.384-15.857-18.432-72.704l-1.024-44.529-53.248 46.080c-29.169 25.073-53.775 45.056-54.272 44.529-1.024-1.024-11.761-22.528-24.576-48.128l-23.552-46.577 105.472-91.663c58.368-50.673 140.815-122.383 183.823-159.217 93.184-81.423 96.256-82.447 132.593-40.96 13.839 15.887 22.528 30.72 22.001 36.864-1.024 5.617-36.337 40.463-79.345 78.351l-78.321 68.608v104.945c0 103.951 0 104.448-12.815 116.736-10.737 11.264-16.384 12.815-49.649 12.288-20.48 0-42.511-2.048-48.655-4.593zM293.361 485.361l-164.864-142.336v-142.336c-0.527-154.624 1.024-166.415 27.648-186.895l14.336-11.264h683.008l14.336 11.264c26.624 20.48 28.145 32.241 27.648 186.895v142.336l-149.504 129.024c-81.92 71.183-150.031 128-151.552 126.976-1.024-1.521 3.072-28.672 9.713-60.416l11.264-58.368-50.176-78.848c-27.648-43.505-49.649-82.417-49.649-87.040 0.497-4.593 13.809-66.56 29.696-137.713s28.145-131.072 27.121-133.647c-1.521-4.096-153.073 253.952-160.241 272.384-1.551 4.096 19.983 42.511 48.128 86.016l50.176 78.848-23.055 69.632c-12.288 38.385-24.576 71.153-26.127 73.728-2.048 2.048-77.824-60.416-167.936-138.24z" />
<glyph unicode="&#xe61c;" d="M128 950.257c-47.104-10.24-82.417-35.84-102.4-75.776l-12.815-24.576-1.521-394.737c-1.024-390.144-1.024-395.264 9.216-419.84 14.863-34.816 47.601-66.56 80.896-78.848 26.127-9.743 39.936-10.24 413.199-10.24h386.048l27.121 11.761c37.888 16.911 55.793 33.792 73.201 68.608l15.36 29.696v783.36l-12.288 27.151c-13.809 31.217-51.2 67.057-80.399 77.824-16.384 6.144-86.513 7.665-398.863 8.192-208.399 0.527-387.072-0.527-396.815-2.575zM904.689 905.728c29.169-9.743 44.559-23.055 59.392-50.703 11.264-20.48 11.264-21.007 11.264-407.025 0-425.457 2.048-399.36-31.217-432.655-29.199-29.169-16.384-28.145-433.152-28.145-343.040 0-385.024 1.024-399.887 8.192-23.025 11.761-38.912 27.151-50.176 49.152-9.216 18.432-9.743 35.84-9.743 403.456 0 382.479 0 384 11.264 407.552 11.761 25.073 38.385 46.607 66.56 53.248 9.216 2.048 182.272 4.096 384 4.593 324.111 0.527 370.161-0.527 391.695-7.665zM488.448 864.768c-22.031-10.737-39.936-44.032-36.337-67.087 11.264-68.081 99.328-86.016 128-25.6 29.696 62.464-30.193 123.377-91.663 92.657zM600.064 710.144c-5.617-5.647-14.336-23.552-18.929-39.936-4.593-16.911-14.863-49.152-22.528-72.177-13.839-40.463-14.336-42.511-4.593-45.056 26.097-8.719 31.217-50.176 8.192-69.632-13.312-11.761-20.48-11.761-91.663-1.521-31.217 4.593-57.344 7.168-58.368 6.144-1.551-1.551-3.599-311.793-2.575-412.672 0-8.689 5.12-13.839 17.935-19.456 22.031-9.216 33.792-9.216 46.607 0 9.216 7.168 9.713 16.384 12.288 157.696l2.575 150.031h40.96l1.521-145.935c1.024-140.815 1.521-145.905 12.288-157.169 6.144-6.641 13.839-11.761 17.408-11.761 11.264 0 32.241 11.264 36.337 19.953 2.048 4.593 5.12 131.569 6.641 282.097s4.593 276.48 6.641 280.079c2.048 3.569 7.168 5.12 11.264 3.072 6.641-2.048 7.665-22.001 7.665-125.425 0-74.752 2.048-126.479 5.12-132.623 7.665-13.809 48.655-13.809 56.32 0 3.072 6.144 5.12 67.584 5.12 163.313 0 152.049 0 153.073-11.264 163.84-8.192 7.168-22.031 11.761-43.008 13.839-27.648 3.072-32.768 2.575-41.984-6.641zM373.76 701.425c-9.743-7.168-18.959-15.887-21.504-18.959-5.647-9.216-5.12-161.792 0.527-164.864 6.671-4.096 78.351-18.959 80.896-16.911 1.024 1.521-1.551 12.288-5.647 24.576-9.713 28.672-19.983 94.705-15.887 101.873 6.144 9.713 17.935 5.12 17.935-6.144 0-17.408 17.935-43.505 35.343-52.751 15.857-7.665 74.752-11.264 70.129-3.569-1.521 2.048 6.641 35.313 17.408 73.201 11.264 37.361 20.48 70.159 20.48 72.704 0 2.048-40.96 3.569-91.136 3.569-89.088 0-91.663-0.527-108.544-12.815zM461.327 545.28c0-4.096 2.048-12.288 4.623-17.935 2.545-6.671 4.593-7.168 4.593-2.575 0 4.096-2.048 12.288-4.593 17.935-2.575 6.671-4.623 7.168-4.623 2.575zM481.28 545.28c0-3.599 1.521-5.12 3.569-3.599 1.551 2.048 1.551 5.12 0 7.168-2.048 1.551-3.569 0-3.569-3.599zM502.287 545.28c0-4.096 2.048-12.288 4.593-17.935 2.575-6.671 4.623-7.168 4.623-2.575 0 4.096-2.048 12.288-4.623 17.935-2.545 6.671-4.593 7.168-4.593 2.575zM527.857 537.088c0-5.617 1.521-7.168 3.072-3.072 1.521 3.569 1.024 8.192-0.497 9.713-1.521 2.048-3.072-1.024-2.545-6.671zM547.84 540.16c0-3.599 1.521-5.12 3.569-3.599 1.521 2.048 1.521 5.12 0 7.168-2.048 1.551-3.569 0-3.569-3.599zM440.817 532.495c0-5.647 2.048-13.839 4.623-17.935 4.623-6.671 5.12-6.671 4.623 0 0 4.096-2.048 12.288-4.623 17.935-4.623 10.24-4.623 10.24-4.623 0zM486.4 529.92c0-3.599 1.521-5.12 3.569-3.599 1.551 2.048 1.551 5.12 0 7.168-2.048 1.551-3.569 0-3.569-3.599zM533.504 517.135c0-5.647 2.048-15.887 4.096-23.055l4.096-12.815v12.815c0 7.168-1.521 17.408-4.096 23.055-4.593 10.24-4.593 10.24-4.096 0zM553.487 519.68c0-4.096 2.048-12.288 4.593-17.935 2.545-6.671 4.593-7.168 4.593-2.575 0 4.096-2.048 12.288-4.593 17.935-2.545 6.641-4.593 7.168-4.593 2.575zM471.040 504.32c0-5.617 2.048-10.24 4.593-10.24s3.599 4.623 2.048 10.24c-1.521 5.647-3.569 10.24-4.593 10.24s-2.048-4.623-2.048-10.24zM492.017 509.44c0-4.096 2.048-11.264 4.593-15.36 6.144-9.216 6.144-1.024 0 12.815-3.072 6.671-4.593 7.695-4.593 2.575zM512.497 505.841c-0.527-6.144 2.048-12.815 4.593-14.336 6.144-3.599 6.144 1.024 0 15.36-4.096 9.743-4.593 9.743-4.593-1.024z" />
<glyph unicode="&#xe61d;" d="M1170.286 82.286v-73.143h-1170.286v877.714h73.143v-804.571h1097.143zM1097.143 795.429v-248.576q0-11.995-11.154-16.859t-20.297 4.279l-69.157 69.157-361.728-361.728q-5.705-5.705-13.129-5.705t-13.129 5.705l-133.157 133.157-237.714-237.714-109.714 109.714 334.299 334.299q5.705 5.705 13.129 5.705t13.129-5.705l133.157-133.157 265.143 265.143-69.157 69.157q-9.143 9.143-4.279 20.297t16.859 11.154h248.576q8.009 0 13.129-5.157t5.157-13.129z" horiz-adv-x="1170" />
<glyph unicode="&#xe61e;" d="M619.52 806.4c-56.32-27.648-449.536-422.912-470.016-473.088-68.608-161.792 86.016-316.416 247.808-247.808 50.176 20.48 446.464 413.696 473.088 471.040 79.872 164.864-87.040 330.752-250.88 249.856zM769.024 760.32c61.44-32.768 88.064-116.736 56.32-177.152-8.192-15.36-61.44-73.728-117.76-130.048l-103.424-102.4-94.208 95.232-95.232 94.208 97.28 98.304c53.248 54.272 111.616 107.52 128 117.76 36.864 23.552 88.064 24.576 129.024 4.096z" />
<glyph unicode="&#xe61f;" d="M204.8 796.16c-38.912-38.912-14.336-102.4 38.912-102.4 25.6 0 63.488 33.792 63.488 56.32 0 20.48-46.080 66.56-66.56 66.56-8.192 0-24.576-9.216-35.84-20.48zM596.992 807.424c-92.16-23.552-156.672-98.304-164.864-190.464l-4.096-56.32h57.344c54.272 0 57.344 1.024 57.344 25.6 0 38.912 25.6 94.208 49.152 106.496 12.288 6.144 44.032 11.264 72.704 11.264 43.008 0 54.272-4.096 71.68-26.624 13.312-17.408 21.504-41.984 21.504-67.584 0-34.816-8.192-48.128-67.584-111.616-73.728-77.824-90.112-110.592-100.352-190.464l-7.168-54.272h123.904v40.96c0 55.296 17.408 86.016 87.040 153.6 32.768 30.72 64.512 70.656 72.704 89.088 27.648 63.488 11.264 159.744-34.816 210.944-44.032 49.152-159.744 77.824-234.496 59.392zM178.176 663.040c-29.696-12.288-41.984-53.248-51.2-168.96-6.144-82.944-5.12-97.28 8.192-97.28 18.432 0 28.672 40.96 28.672 110.592 0 25.6 3.072 43.008 8.192 38.912 4.096-4.096 7.168-109.568 7.168-234.496 0-195.584 2.048-227.328 15.36-227.328 12.288 0 18.432 29.696 31.744 143.36 17.408 156.672 20.48 153.6 38.912-29.696 10.24-101.376 19.456-126.976 41.984-113.664 8.192 5.12 9.216 73.728 6.144 243.712-3.072 137.216-2.048 224.256 3.072 206.848 5.12-16.384 9.216-53.248 10.24-79.872 1.024-33.792 6.144-50.176 16.384-55.296 9.216-3.072 18.432-3.072 21.504 0s1.024 55.296-5.12 116.736c-10.24 97.28-15.36 113.664-37.888 134.144-27.648 23.552-99.328 30.72-143.36 12.288zM583.68 145.92v-66.56h122.88v133.12h-122.88v-66.56z" />
<glyph unicode="&#xe620;" d="M456.704 801.28c-17.408-18.432-34.816-25.6-61.44-25.6-20.48 0-36.864-4.096-36.864-10.24 0-5.12-25.6-10.24-56.32-10.24h-56.32v-686.080h532.48v686.080h-56.32c-30.72 0-56.32 5.12-56.32 10.24 0 6.144-16.384 10.24-36.864 10.24-26.624 0-44.032 7.168-61.44 25.6-15.36 16.384-34.816 25.6-55.296 25.6s-39.936-9.216-55.296-25.6zM537.6 785.92c4.096-6.144-7.168-10.24-25.6-10.24s-29.696 4.096-25.6 10.24c3.072 6.144 15.36 10.24 25.6 10.24s22.528-4.096 25.6-10.24zM358.4 688.64c0-13.312 23.552-15.36 153.6-15.36s153.6 2.048 153.6 15.36c0 10.24 10.24 15.36 30.72 15.36h30.72v-583.68h-430.080v583.68h30.72c20.48 0 30.72-5.12 30.72-15.36zM394.24 611.84c-18.432-20.48-18.432-21.504 20.48-61.44l39.936-40.96-37.888-38.912-38.912-38.912 21.504-19.456c20.48-18.432 21.504-18.432 59.392 18.432l38.912 37.888 39.936-40.96c39.936-40.96 39.936-40.96 60.416-20.48s20.48 20.48-19.456 61.44l-39.936 40.96 39.936 40.96c38.912 39.936 38.912 40.96 20.48 61.44l-19.456 21.504-36.864-36.864c-20.48-19.456-40.96-35.84-46.080-35.84s-25.6 16.384-46.080 35.84l-36.864 36.864-19.456-21.504zM548.864 320l-68.608-58.368-28.672 26.624-27.648 26.624-24.576-25.6-24.576-26.624 106.496-106.496 179.2 179.2-43.008 43.008-68.608-58.368z" />
<glyph unicode="&#xe621;" d="M521.143-9.143q0 9.143-9.143 9.143-33.719 0-58.002 24.283t-24.283 58.002q0 9.143-9.143 9.143t-9.143-9.143q0-41.728 29.44-71.131t71.131-29.44q9.143 0 9.143 9.143zM140.581 155.429h742.839q-151.991 171.447-151.991 475.429 0 29.147-13.714 60.014t-39.424 58.843-69.413 46.007-96.841 17.993-96.841-17.993-69.413-46.007-39.424-58.843-13.714-60.014q0-304.018-151.991-475.429zM987.429 155.429q0-29.696-21.723-51.419t-51.419-21.723h-256q0-60.562-42.862-103.424t-103.424-42.862-103.424 42.862-42.862 103.424h-256q-29.696 0-51.419 21.723t-21.723 51.419q28.562 23.991 52.005 50.286t48.567 68.279 42.569 90.587 28.562 117.723 11.154 148.553q0 86.857 66.853 161.426t175.433 90.587q-4.571 10.862-4.571 22.272 0 22.857 16.018 38.839t38.839 16.018 38.839-16.018 16.018-38.839q0-11.447-4.571-22.272 108.581-16.018 175.433-90.587t66.853-161.426q0-79.433 11.154-148.553t28.562-117.723 42.569-90.587 48.567-68.279 52.005-50.286z" />
<glyph unicode="&#xe622;" d="M400.004 915.851c-62.727-30.076-99.855-81.92-104.331-147.836-3.833-54.389 20.48-111.353 134.407-311.676 24.313-43.535 46.080-79.989 48.625-81.276 5.12-2.545 104.331 168.96 142.073 245.76 41.604 83.207 51.2 117.116 44.793 155.531-7.665 48.011-25.6 81.276-60.796 111.996-56.964 49.913-135.695 60.796-204.8 27.531zM527.36 826.88c78.731-46.080 53.745-161.909-37.127-172.149-68.491-7.665-120.949 59.509-96.636 122.88 12.171 32.651 26.244 46.080 58.895 58.251 26.887 9.596 46.724 7.051 74.869-8.953zM72.967 707.833c-12.815-5.764-22.411-16.004-27.531-29.433-5.12-14.716-7.051-117.116-7.051-334.087 0-353.28 0-350.705 42.891-363.52 17.291-5.12 151.025-6.407 455.036-5.12l431.367 1.931 30.72 35.84v664.313l-30.72 35.84h-234.876l-14.073-38.415c-7.665-21.124-14.073-42.247-14.073-46.080-0.644-6.407 23.669-8.309 101.756-8.309h102.4v-70.393c0-67.847-0.644-70.393-14.073-72.967-96.636-19.836-97.28-20.48-87.684-49.269 4.476-12.171 9.596-24.313 12.171-26.887 2.545-3.189 21.767-0.644 42.247 4.476s39.673 7.665 42.891 4.476c2.545-2.545 3.833-79.375 3.189-170.891l-1.931-165.771-771.189-3.189v105.589c0 58.251 1.931 105.589 4.476 105.589s16.004-10.884 29.433-24.313l24.313-23.669 19.193 21.124c10.24 11.527 18.549 23.025 18.549 25.6s-21.767 26.244-48.011 51.844l-48.011 47.367v241.284h60.796c42.247 0 60.796 2.575 60.796 7.695 0 3.833-6.407 25.6-13.429 48.011l-14.073 40.316h-67.847c-42.247-0.644-75.513-3.833-87.684-8.953zM704.629 398.731c-15.36-13.429-39.673-41.604-53.131-62.727l-24.956-38.415 20.48-17.291c11.527-10.24 24.313-17.905 28.145-17.905 3.189 0 15.36 14.716 25.6 32.651 10.884 17.935 30.076 42.247 43.505 53.775l24.313 21.124-16.004 26.244c-9.596 14.716-17.291 26.244-18.549 26.244-0.644 0-14.073-10.884-29.433-23.669zM560.011 233.604c-14.073-8.953-42.247-22.411-62.727-30.076-39.029-14.073-38.415-12.815-23.055-55.676 5.12-12.171 8.953-14.073 23.669-10.884 26.887 6.407 106.233 46.724 119.047 60.796 10.884 12.171 10.884 12.815-6.407 32.007-9.596 10.884-19.193 19.836-21.124 19.836s-15.36-7.665-29.433-16.004zM263.051 219.531l-15.36-23.669 15.36-12.171c21.124-17.291 87.040-47.367 115.185-52.487 20.48-3.833 23.669-2.545 26.887 10.884 2.575 7.665 4.476 22.411 4.476 32.651 0 13.429-3.189 17.291-14.073 17.291-16.647 0-90.873 33.909-97.28 44.149-8.309 12.815-19.836 7.051-35.196-16.647z" />
<glyph unicode="&#xe623;" d="M227.328 771.584l-50.176-52.224 18.432-46.080c24.576-61.44 23.552-137.216-1.024-209.92-55.296-160.768 12.288-262.144 229.376-343.040 30.72-12.288 60.416-27.648 67.584-34.816 9.216-12.288 18.432-10.24 54.272 9.216 23.552 13.312 68.608 33.792 99.328 46.080 69.632 27.648 146.432 82.944 173.056 125.952 34.816 57.344 36.864 99.328 6.144 200.704-23.552 82.944-25.6 99.328-16.384 145.408 6.144 27.648 18.432 65.536 27.648 82.944l16.384 32.768-52.224 50.176c-51.2 48.128-53.248 49.152-77.824 33.792-44.032-28.672-109.568-37.888-166.912-22.528-32.768 8.192-57.344 9.216-68.608 4.096-30.72-17.408-124.928-12.288-167.936 9.216l-40.96 20.48-50.176-52.224zM598.016 610.816c39.936-18.432 62.464-74.752 48.128-121.856-16.384-56.32-43.008-74.752-113.664-79.872l-61.44-4.096v-142.336l-37.888 3.072-38.912 3.072-3.072 177.152-2.048 176.128h91.136c51.2 0 103.424-5.12 117.76-11.264zM471.040 515.584c0-47.104 0-47.104 34.816-47.104 40.96 0 60.416 19.456 55.296 58.368-3.072 25.6-7.168 28.672-46.080 31.744l-44.032 3.072v-46.080z" />
<glyph unicode="&#xe624;" d="M877.714 448q0-89.161-34.853-170.277t-93.696-139.995-139.995-93.696-170.277-34.853-170.277 34.853-139.995 93.696-93.696 139.995-34.853 170.277q0 104.009 46.007 195.986t129.426 154.295q24.576 18.286 54.565 14.299t47.726-28.562q18.286-23.991 14.007-54.016t-28.27-48.274q-55.991-42.277-86.565-103.424t-30.574-130.304q0-59.429 23.15-113.445t62.574-93.44 93.44-62.574 113.445-23.15 113.445 23.15 93.44 62.574 62.574 93.44 23.15 113.445q0 69.157-30.574 130.304t-86.565 103.424q-23.991 18.286-28.27 48.274t14.007 54.016q17.701 24.576 48.018 28.562t54.272-14.299q83.419-62.281 129.426-154.295t46.007-195.986zM512 886.857v-365.714q0-29.696-21.723-51.419t-51.419-21.723-51.419 21.723-21.723 51.419v365.714q0 29.696 21.723 51.419t51.419 21.723 51.419-21.723 21.723-51.419z" />
<glyph unicode="&#xe625;" d="M863.788 208.501c0.702 9.362-1.931 24.020-5.851 32.68l-42.16 92.891c-3.95 8.66-7.724 15.74-8.455 15.77-0.644 0.029-0.819 0.029-0.468 0.029 0.059 0 0.117 0 0.176 0v0c0.585 0-1.17 7.344-3.891 16.413l-9.684 32.037c-2.75 9.070-12.083 20.539-19.046 27.443-29.842 29.725-38.122 82.008-69.486 82.008-0.088 0-0.146-0.029-0.234-0.029-35.664-0.117-61.177-26.010-61.177-58.514 0 0-2.779-49.328 22.674-85.051 5.617-7.87 13.253-20.743 15.272-29.959l4.184-19.017c2.019-9.216-4.681-16.677-14.95-16.677h-271.653c-10.269 0-24.254 5.588-31.217 12.522-15.711 15.594-42.423 42.072-59.48 58.982-1.083 1.083-2.253 2.253-3.277 3.218-6.963 6.905-12.668 20.1-12.668 29.491v48.216c0 26.419-27.414 47.865-61.235 47.865s-61.235-21.416-61.235-47.865v-48.216c0-9.392 1.17-24.576 2.604-33.88 2.37-15.419 5.91-38.093 8.309-53.511 1.463-9.304 9.157-21.592 17.174-27.502l118.93-87.186c8.016-5.881 22.821-11.293 33.061-12.083l183.003-14.131c10.24-0.79 20.509-8.836 22.938-17.964l26.77-100.937c2.428-9.128 12.727-16.53 22.996-16.53h245.409c10.269 0 19.193 7.607 19.895 16.969l-10.064 113.898 2.896 38.649zM320.863 770.677v-120.978l-94.179-79.931 81.657-0.117v-88.62c5.061-9.187 8.075-19.31 8.075-30.076v-48.216c0.029-2.838 2.955-9.918 5.53-12.464l62.757-62.23c2.311-2.282 10.094-5.559 14.307-5.559h45.466v161.499h123.992v-161.499h90.902l-1.434 6.554c-0.79 3.628-5.383 12.756-11.381 21.182-28.467 39.965-27.414 92.336-27.121 99.562 0.322 45.934 37.595 81.803 85.197 81.949v37.361l81.657-0.117-280.254 237.802-113.196-96.051v59.889h-72.002z" />
<glyph unicode="&#xe626;" d="M558.139 690.103c10.65 11.001 16.677 25.659 16.677 41.077 0 32.797-26.683 59.451-59.421 59.451s-59.421-26.653-59.421-59.451c0-18.461 8.338-35.343 22.674-46.519l-200.148-681.194 41.253-12.083 19.397 65.916 285.403 254.215 90.141-306.82 3.979-13.283 41.223 12.083-201.757 686.607zM489.677 569.68l29.52 100.44 17.232-58.69-46.753-41.721zM480.9 504.232l68.93 61.499 45.524-155.004-114.454 93.477zM602.434 349.462l-240.377-214.104 97.251 331.015 143.126-116.941zM607.934 751.484c0-10.562-2.779-21.036-7.958-30.281l-0.907-3.013 10.006-11.732 2.779 4.535c7.578 12.229 11.527 26.244 11.527 40.492 0 13.546-3.657 26.917-10.503 38.707l-1.872 3.189-3.248-1.814c-2.136-1.17-4.33-2.165-6.612-3.043l-4.301-1.58 2.341-3.92c5.705-9.538 8.748-20.451 8.748-31.568zM633.271 675.387c0.585-0.585 1.17-1.141 1.726-1.755l2.955-3.248 2.779 3.423c18.081 21.972 28.028 49.562 28.028 77.678 0 25.541-7.958 50.147-23.055 71.241l-3.043 4.242-3.101-4.213c-1.609-2.194-3.218-4.418-4.944-6.554l-1.755-2.194 1.58-2.311c12.376-17.964 18.871-38.766 18.871-60.211 0-24.605-8.192-47.806-23.669-67.087l-1.814-2.282 3.218-4.33c0.731-0.819 1.492-1.609 2.282-2.37zM702.552 751.484c0-37.069-13.488-73.172-37.917-101.669l-2.428-2.838 2.779-2.487c1.375-1.2 2.779-2.37 4.155-3.54l4.827-4.096 2.458 2.867c26.829 31.276 41.604 70.949 41.604 111.733 0 42.13-15.565 82.739-43.71 114.337l-3.131 3.569-2.779-3.862c-1.58-2.194-3.131-4.476-4.71-6.788l-1.668-2.37 1.931-2.194c24.898-28.526 38.59-64.951 38.59-102.634zM751.821 751.484c0-48.684-17.437-95.993-49.093-133.237l-2.516-2.984 3.043-2.428c1.785-1.463 3.569-2.984 5.325-4.506l3.511-3.013 2.458 2.926c34.026 40.024 52.751 90.873 52.751 143.243 0 55.91-20.977 109.334-59.070 150.44l-2.516 2.692-2.779-2.428c-1.317-1.112-2.633-2.341-3.891-3.54l-4.857-4.418 2.604-2.838c35.518-38.21 55.033-87.888 55.033-139.908zM414.925 706.428l10.445 12.376-1.346 2.399c-5.208 9.216-7.958 19.69-7.958 30.281 0 11.118 3.013 22.001 8.719 31.598l2.341 3.92-4.272 1.58c-2.253 0.878-4.476 1.902-6.612 3.043l-3.248 1.814-1.843-3.189c-6.905-11.791-10.533-25.161-10.533-38.707 0-14.248 3.979-28.262 11.527-40.492l2.779-4.564zM383.298 673.777l2.779-3.423 2.955 3.248c0.556 0.614 1.112 1.17 1.726 1.755 0.761 0.761 1.521 1.58 2.458 2.662l3.043 4.067-1.814 2.282c-15.506 19.31-23.698 42.481-23.698 67.087 0 21.445 6.524 42.247 18.871 60.211l1.609 2.311-1.755 2.194c-1.726 2.107-3.365 4.33-4.974 6.554l-3.101 4.213-3.043-4.242c-15.097-21.065-23.084-45.67-23.084-71.241 0-28.116 9.977-55.706 28.028-77.678zM347.604 639.751l2.458-2.867 4.798 4.096c1.404 1.141 2.779 2.341 4.155 3.54l2.809 2.487-2.458 2.838c-24.43 28.496-37.888 64.6-37.888 101.669 0 37.683 13.722 74.108 38.59 102.663l1.902 2.194-1.638 2.341c-1.58 2.341-3.131 4.623-4.681 6.788l-2.779 3.862-3.16-3.569c-28.204-31.598-43.71-72.236-43.71-114.337 0-40.755 14.775-80.457 41.604-111.704zM312.554 605.842l2.896 2.487c1.755 1.492 3.54 3.013 5.354 4.506l3.013 2.428-2.516 2.984c-31.685 37.244-49.093 84.553-49.093 133.237 0 52.019 19.573 101.698 55.062 139.908l2.604 2.838-4.827 4.418c-1.317 1.17-2.633 2.428-3.92 3.54l-2.779 2.428-2.458-2.692c-38.122-41.106-59.129-94.53-59.129-150.44 0-52.37 18.725-103.219 52.78-143.243l3.043-2.37z" />
<glyph unicode="&#xe627;" d="M143.36 448v-378.88h583.68v446.464l76.8 75.776c41.984 41.984 76.8 83.968 76.8 92.16 0 20.48-103.424 122.88-123.904 122.88-8.192 0-37.888-23.552-65.536-51.2l-50.176-51.2-124.928 122.88h-372.736v-378.88zM481.28 679.424c0-68.608 4.096-98.304 13.312-101.376s9.216-7.168-2.048-20.48c-11.264-14.336-33.792-17.408-119.808-17.408-64.512 0-106.496-4.096-106.496-10.24s34.816-10.24 84.992-10.24h86.016l-51.2-102.4h-59.392c-47.104 0-60.416-3.072-60.416-15.36 0-11.264 12.288-15.36 51.2-15.36 28.672 0 51.2-3.072 51.2-7.168s-7.168-27.648-16.384-51.2c-15.36-39.936-20.48-44.032-51.2-44.032-24.576 0-34.816-5.12-34.816-15.36 0-13.312 25.6-15.36 168.96-15.36 141.312 0 168.96 2.048 168.96 15.36 0 11.264-19.456 15.36-89.088 17.408l-90.112 3.072 61.44 24.576c40.96 16.384 80.896 44.032 120.832 81.92l58.368 56.32v-331.776l-232.448 2.048-233.472 3.072-3.072 312.32c-1.024 172.032 0 317.44 3.072 324.608 3.072 10.24 40.96 13.312 143.36 13.312h138.24v-96.256zM568.32 692.736c24.576-30.72 25.6-33.792 9.216-51.2-9.216-11.264-25.6-19.456-36.864-19.456-15.36 0-18.432 8.192-18.432 51.2 0 28.672 4.096 51.2 9.216 51.2s21.504-14.336 36.864-31.744zM527.36 356.864c-6.144-5.12-34.816-19.456-65.536-31.744-49.152-18.432-57.344-19.456-70.656-6.144s-13.312 20.48 3.072 59.392c9.216 24.576 21.504 55.296 27.648 68.608 9.216 25.6 9.216 25.6 62.464-27.648 33.792-33.792 49.152-56.32 43.008-62.464z" />
<glyph unicode="&#xe628;" d="M347.107 34.45c0-50.322-40.784-91.107-91.107-91.107s-91.107 40.784-91.107 91.107c0 50.322 40.784 91.107 91.107 91.107s91.107-40.784 91.107-91.107zM898.487 34.45c0-50.322-40.784-91.107-91.107-91.107s-91.107 40.784-91.107 91.107c0 50.322 40.784 91.107 91.107 91.107s91.107-40.784 91.107-91.107zM583.329 723.69c0.029 12.932 0.088 64.834 0.088 78.76 0 39.439-31.978 71.417-71.417 71.417s-71.358-31.978-71.358-71.417c0-13.956 0.029-66.209 0.088-78.76h142.599zM993.836 330.62l-245.526 314.28c-17.993 21.709-30.164 39.38-59.070 39.38h-649.86c-21.709 0-39.38-17.671-39.38-39.38v-551.38c0-21.709 17.671-39.38 39.38-39.38h78.526c9.655 67.847 67.584 120.393 138.094 120.393s128.439-52.546 138.094-120.393h276.392c9.596 67.321 66.911 119.223 136.953 119.223s127.298-51.902 136.953-119.223h40.258c21.709 0 39.38 17.671 39.38 39.38 0 0 0 120.247 0 157.55s-30.164 79.55-30.164 79.55zM315.070 282.083c-91.633 0-165.917 74.313-165.917 165.917s74.284 165.917 165.917 165.917 165.917-74.313 165.917-165.917-74.284-165.917-165.917-165.917zM630.14 329.86v236.31h99.182c6.29 0 15.155-9.304 15.155-9.304l149.387-193.536c7.314-10.796 15.331-23.64 15.331-33.47h-279.025zM275.69 566.14h78.76v-236.31h-78.76v236.31zM196.93 487.38h236.31v-78.76h-236.31v78.76z" />
<glyph unicode="&#xe629;" d="M885.731 446.479c19.632 0 35.547 15.945 35.547 35.606v25.805c0 19.69-15.887 35.606-35.547 35.606h-177.181v365.714c0 19.661-15.916 35.577-35.547 35.577h-321.916c-19.661 0-35.577-15.916-35.577-35.577v-365.744h-60.504v370.717c0 19.632-15.916 35.606-35.577 35.606h-87.011v-71.183h51.405v-335.082h-45.466c-19.632 0-35.606-15.887-35.606-35.577v-25.834c0-19.632 15.916-35.577 35.606-35.577h177.152v-210.476h-41.457v158.135c0 19.69-15.916 35.606-35.577 35.606h-100.118c-19.632 0-35.606-15.916-35.606-35.606v-412.379c0-19.69 15.916-35.547 35.606-35.547h100.118c19.661 0 35.577 15.857 35.577 35.547v158.193h476.014v-158.193c0-19.69 15.916-35.547 35.547-35.547h100.147c19.632 0 35.547 15.857 35.547 35.547v412.292c0 19.719-15.887 35.635-35.547 35.635h-100.147c-19.632 0-35.547-15.916-35.547-35.635v-158.106h-41.487v210.447h177.181zM386.692 389.72c6.817 3.306 14.365 5.413 22.528 5.413 28.409 0 51.405-22.996 51.405-51.463 0-28.379-22.996-51.376-51.405-51.376-8.133 0-15.711 2.048-22.528 5.383-17.028 8.368-28.906 25.776-28.906 45.992 0 20.304 11.849 37.683 28.906 46.051zM637.338 297.677c-6.788-3.335-14.424-5.383-22.587-5.383-28.35 0-51.376 22.996-51.376 51.376 0 28.438 23.025 51.434 51.376 51.434 8.133 0 15.77-2.077 22.587-5.413 17.086-8.368 28.848-25.746 28.848-45.992s-11.849-37.595-28.848-45.992zM386.692 873.604h250.646v-303.543h-250.646v303.543z" />
<glyph unicode="&#xe62a;" d="M889.68 709.617c-8.368 81.744-21.68 145.379-42.745 170.394-86.864 102.868-695.472 110.387-764.548 0-16.911-27.034-28.76-90.463-36.718-170.54-25.659-3.013-45.67-24.635-45.67-51.083v-100.118c0-22.265 14.102-41.048 33.792-48.362-4.652-157.725-0.878-322.238 6.115-404.070 0-63.166 42.423-52.692 42.423-52.692h39.79v-68.198c0-27.034 27.882-48.918 62.23-48.918 34.377 0 62.259 21.884 62.259 48.918v68.198h462.76v-68.198c0-27.034 27.853-48.918 62.259-48.918 34.348 0 62.23 21.884 62.23 48.918v68.198h13.078c0 0 49.942-6.846 53.131 22.908 0 81.598 5.149 262.466 0.907 433.181 20.948 6.554 36.22 25.863 36.22 49.064v100.118c0.029 27.092-20.948 49.064-47.514 51.229zM231.014 865.353h467.295v-70.685h-467.295v70.685zM237.685 133.661c-36.688 0-66.414 29.755-66.414 66.443s29.725 66.384 66.414 66.384 66.443-29.725 66.443-66.384c0-36.688-29.725-66.443-66.443-66.443zM695.793 133.661c-36.659 0-66.472 29.755-66.472 66.443s29.784 66.384 66.472 66.384 66.414-29.725 66.414-66.384c0.029-36.688-29.725-66.443-66.414-66.443zM780.229 424.36h-631.194v331.074h631.194v-331.074z" horiz-adv-x="936" />
<glyph unicode="&#xe62b;" d="M987.721 78.921l-85.343 347.721c-6.407 23.464-29.872 38.415-53.336 34.143 0 0-170.657-34.143-174.928-34.143-32.007-59.743-66.121-117.321-98.128-170.657-14.921-23.464-40.521-38.415-68.257-38.415s-53.336 14.921-68.257 38.415c-49.064 81.072-102.4 174.928-142.921 262.407l-155.736-61.879c-12.815-6.407-23.464-17.057-27.736-32.007l-85.343-343.479c-4.272-14.921 0-32.007 12.815-44.793 10.679-10.679 27.736-14.921 44.793-10.679l241.079 64.015c8.543 2.136 17.057 2.136 25.6 0l309.336-100.264c6.407-2.136 12.785-2.136 21.328-2.136l266.679 34.143c12.815 2.136 25.6 8.543 32.007 19.193s10.679 25.6 6.407 38.415zM507.728 279.479c0 0 0 0 0 0 6.407 0 10.679 4.272 14.921 8.543 49.064 78.936 198.393 334.936 198.393 433.064 0 117.321-95.993 213.343-213.343 213.343s-213.343-95.993-213.343-213.343c0-98.128 149.328-354.128 198.393-433.064 4.272-4.272 10.679-8.543 14.921-8.543zM403.193 723.193c0 55.472 44.793 102.4 102.4 102.4 55.472 0 102.4-44.793 102.4-102.4 0-55.472-44.793-102.4-102.4-102.4s-102.4 44.793-102.4 102.4z" />
<glyph unicode="&#xe62c;" d="M154.843 419.986l-57.71-57.71q-23.991 58.843-23.991 122.295v73.143q0 14.848 10.862 25.71t25.71 10.862 25.71-10.862 10.862-25.71v-73.143q0-30.281 8.558-64.585zM791.442 764.014l-206.299-206.299v-73.143q0-75.447-53.723-129.134t-129.134-53.723q-31.415 0-62.281 10.862l-54.857-54.857q55.442-29.147 117.138-29.147 105.728 0 180.846 75.154t75.154 180.846v73.143q0 14.848 10.862 25.71t25.71 10.862 25.71-10.862 10.862-25.71v-73.143q0-126.281-84.297-219.721t-208.274-107.154v-75.447h146.286q14.848 0 25.71-10.862t10.862-25.71-10.862-25.71-25.71-10.862h-365.714q-14.848 0-25.71 10.862t-10.862 25.71 10.862 25.71 25.71 10.862h146.286v75.447q-71.424 7.424-134.29 46.299l-145.152-145.152q-5.705-5.705-13.129-5.705t-13.129 5.705l-46.848 46.848q-5.705 5.705-5.705 13.129t5.705 13.129l705.134 705.134q5.705 5.705 13.129 5.705t13.129-5.705l46.848-46.848q5.705-5.705 5.705-13.129t-5.705-13.129zM574.281 839.424l-354.853-354.853v292.571q0 75.447 53.723 129.134t129.134 53.723q58.295 0 105.435-33.719t66.56-86.857z" horiz-adv-x="805" />
<glyph unicode="&#xe62d;" d="M219.429 118.857q0 14.848-10.862 25.71t-25.71 10.862-25.71-10.862-10.862-25.71 10.862-25.71 25.71-10.862 25.71 10.862 10.862 25.71zM587.447 358.839l-389.705-389.705q-21.138-21.138-51.419-21.138-29.696 0-52.005 21.138l-60.562 61.696q-21.723 20.553-21.723 51.419 0 30.281 21.723 52.005l389.157 389.157q22.272-55.991 65.426-99.145t99.145-65.426zM949.723 607.415q0-22.272-13.129-60.562-26.843-76.581-93.989-124.27t-147.712-47.726q-105.728 0-180.846 75.154t-75.154 180.846 75.154 180.846 180.846 75.154q33.134 0 69.413-9.435t61.44-26.587q9.143-6.29 9.143-16.018t-9.143-16.018l-167.424-96.585v-128l110.299-61.147q2.853 1.719 45.129 27.721t77.422 46.299 40.302 20.297q8.558 0 13.422-5.705t4.864-14.299z" horiz-adv-x="951" />
<glyph unicode="&#xe62e;" d="M498.688 737.792c-3.072-5.12-2.048-15.36 2.048-22.528 6.144-9.216-35.84-76.8-125.952-204.8l-135.168-190.464 91.136-3.072c104.448-3.072 118.784 4.096 167.936 87.040l24.576 43.008 44.032-63.488 43.008-63.488 179.2-6.144-26.624 40.96c-13.312 22.528-69.632 108.544-122.88 191.488-73.728 111.616-96.256 154.624-91.136 171.008 5.12 15.36 3.072 19.456-9.216 14.336-8.192-3.072-19.456-1.024-25.6 5.12-5.12 5.12-12.288 6.144-15.36 1.024zM133.12 192v-40.96h92.16v81.92h-92.16v-40.96zM296.96 192v-40.96h102.4v81.92h-102.4v-40.96zM460.8 192v-40.96h102.4v81.92h-102.4v-40.96zM624.64 192v-40.96h102.4v81.92h-102.4v-40.96zM798.72 192v-40.96h92.16v81.92h-92.16v-40.96z" />
<glyph unicode="&#xe62f;" d="M1024 639.985l-512 256-512-256 512-256 512 256zM512 811.023l342.045-171.037-342.045-171.037-342.045 171.037 342.045 171.037zM921.454 499.288l102.546-51.288-512-256-512 256 102.546 51.288 409.454-204.712zM921.454 307.273l102.546-51.288-512-256-512 256 102.546 51.288 409.454-204.712z" />
<glyph unicode="&#xe630;" d="M744.975 949.233c-17.935-2.545-48.128-13.312-73.728-25.6-39.439-19.456-51.697-30.193-145.905-122.88l-102.927-101.376 26.624 3.072c31.217 3.599 82.944-5.647 109.071-18.959l17.905-9.216 66.56 65.039c36.864 35.84 75.776 69.105 87.040 74.752 99.855 46.607 194.56-48.128 148.48-148.48-12.815-28.175-225.807-243.185-257.551-260.096-49.679-26.624-86.016-24.576-134.671 8.192-36.337 24.576-62.464 27.648-85.489 10.24-16.911-12.288-29.696-45.583-24.576-64.512 5.617-23.552 37.888-53.775 78.351-73.728 33.792-16.384 44.032-18.929 84.465-20.977 56.817-3.072 92.687 4.593 139.791 28.672 30.72 15.857 53.745 36.337 161.792 143.857 119.808 119.808 126.976 128 147.456 169.487 48.655 99.825 33.792 203.279-39.439 275.983-55.296 55.296-124.928 78.321-203.249 66.56zM398.863 625.152c-59.889-17.408-83.471-35.343-215.040-166.912-119.808-119.311-126.976-127.503-147.456-168.96-47.601-97.807-34.319-199.68 35.84-273.935 71.183-75.279 180.224-92.16 280.576-43.008 39.439 19.456 51.727 29.696 145.905 122.88l102.927 101.376-26.624-3.072c-31.217-3.569-82.944 5.617-109.568 18.929l-18.432 9.713-60.913-61.44c-69.135-69.135-104.448-91.663-144.911-91.663-45.056 0.497-89.088 32.241-102.897 74.225-7.695 24.079-4.623 60.416 7.695 87.040 12.815 28.145 225.777 243.185 257.551 260.096 49.649 26.624 86.016 24.576 134.671-8.192 36.337-24.576 62.464-27.648 85.519-10.24 16.881 12.288 29.696 45.553 24.576 64.512-5.617 23.552-37.888 53.775-78.848 73.728-36.337 18.432-41.984 19.456-92.687 20.48-33.265 0.527-63.488-1.551-77.824-5.617z" />
<glyph unicode="&#xe631;" d="M656.567 318.866q0 14.848-10.862 25.71l-103.424 103.424 103.424 103.424q10.862 10.862 10.862 25.71 0 15.433-10.862 26.295l-51.419 51.419q-10.862 10.862-26.295 10.862-14.848 0-25.71-10.862l-103.424-103.424-103.424 103.424q-10.862 10.862-25.71 10.862-15.433 0-26.295-10.862l-51.419-51.419q-10.862-10.862-10.862-26.295 0-14.848 10.862-25.71l103.424-103.424-103.424-103.424q-10.862-10.862-10.862-25.71 0-15.433 10.862-26.295l51.419-51.419q10.862-10.862 26.295-10.862 14.848 0 25.71 10.862l103.424 103.424 103.424-103.424q10.862-10.862 25.71-10.862 15.433 0 26.295 10.862l51.419 51.419q10.862 10.862 10.862 26.295zM877.714 448q0-119.442-58.843-220.27t-159.707-159.707-220.27-58.843-220.27 58.843-159.707 159.707-58.843 220.27 58.843 220.27 159.707 159.707 220.27 58.843 220.27-58.843 159.707-159.707 58.843-220.27z" />
<glyph unicode="&#xe632;" d="M882.776 677.99c-27.297-12.112-56.613-20.275-87.391-23.962 31.422 18.842 55.53 48.655 66.882 84.173-29.403-17.437-61.967-30.106-96.607-36.923-27.765 29.579-67.291 48.040-111.060 48.040-84.027 0-152.137-68.111-152.137-152.137 0-11.937 1.346-23.523 3.95-34.67-126.449 6.349-238.563 66.911-313.578 158.983-13.107-22.469-20.597-48.596-20.597-76.478 0-52.78 26.858-99.357 67.672-126.625-24.927 0.79-48.391 7.636-68.901 19.017 0-0.644 0-1.258 0-1.902 0-73.728 52.458-135.197 122.032-149.182-12.756-3.482-26.214-5.325-40.082-5.325-9.801 0-19.339 0.965-28.613 2.721 19.368-60.445 75.542-104.419 142.131-105.648-52.078-40.814-117.672-65.126-188.943-65.126-12.288 0-24.4 0.731-36.308 2.136 67.321-43.184 147.31-68.374 233.209-68.374 279.845 0 432.889 231.834 432.889 432.889 0 6.612-0.146 13.166-0.439 19.69 29.725 21.445 55.53 48.245 75.922 78.76z" />
<glyph unicode="&#xe633;" d="M111.645 423.541c7.051-2.809 14.95-2.721 21.943 0.263l168.989 72.294c10.65 4.535 17.496 15.097 17.379 26.683s-7.256 21.972-17.993 26.273l-46.256 18.549c42.803 100.791 142.863 169.457 255.62 169.457 113.225 0 213.577-69.778 256.117-170.481 14.599-34.553 51.434-54.243 88.269-47.104l5.793 1.112c23.493 4.564 43.681 19.485 54.945 40.609s12.405 46.197 3.16 68.257c-67.496 160.797-227.474 272.267-408.225 272.267-180.985 0-340.495-108.105-408.605-272.823l-42.043 16.852c-10.767 4.33-23.084 1.726-31.159-6.583s-10.445-20.656-5.881-31.305l72.324-168.989c2.984-6.992 8.602-12.522 15.682-15.331zM993.953 288.139l-72.294 168.989c-3.043 6.992-8.631 12.522-15.711 15.331s-14.95 2.721-21.943-0.263l-168.989-72.294c-10.679-4.535-17.525-15.097-17.379-26.683s7.256-21.972 17.993-26.273l46.285-18.549c-42.832-100.791-142.892-169.457-255.649-169.457-113.225 0-213.577 69.778-256.117 170.481-14.599 34.553-51.434 54.243-88.269 47.104l-5.793-1.112c-23.493-4.564-43.681-19.485-54.945-40.609s-12.405-46.197-3.131-68.257c67.555-160.797 227.504-272.267 408.254-272.267 180.985 0 340.524 108.105 408.605 272.823l42.072-16.852c10.737-4.33 23.055-1.726 31.159 6.583s10.386 20.685 5.822 31.334z" />
<glyph unicode="&#xe634;" d="M622.826 257.273c-22.118 3.511-22.616 64.307-22.616 64.307s64.98 64.307 79.141 150.791c38.093 0 61.616 91.955 23.523 124.284 1.58 34.055 48.976 267.323-190.874 267.323s-192.453-233.267-190.874-267.323c-38.093-32.358-14.57-124.284 23.523-124.284 14.16-86.484 79.141-150.791 79.141-150.791s-0.497-60.796-22.616-64.307c-71.212-11.323-337.159-128.644-337.159-257.258h896c0 128.644-265.947 245.936-337.189 257.258z" />
<glyph unicode="&#xe635;" d="M804.571 157.147q0-68.571-41.728-108.288t-110.848-39.717h-499.419q-69.157 0-110.848 39.717t-41.728 108.288q0 30.281 2.011 59.136t8.009 62.281 15.141 61.989 24.576 55.698 35.438 46.299 48.859 30.574 63.707 11.447q5.157 0 23.991-12.288t42.569-27.429 61.696-27.429 76.288-12.288 76.288 12.288 61.696 27.429 42.569 27.429 23.991 12.288q34.853 0 63.707-11.447t48.859-30.574 35.438-46.299 24.576-55.698 15.141-61.989 8.009-62.281 2.011-59.136zM621.714 667.429q0-90.843-64.293-155.136t-155.136-64.293-155.136 64.293-64.293 155.136 64.293 155.136 155.136 64.293 155.136-64.293 64.293-155.136z" horiz-adv-x="805" />
<glyph unicode="&#xe636;" d="M497.664 751.104c-10.24-55.296-54.272-156.672-118.784-272.384-93.184-165.888-101.376-226.304-44.032-315.392 80.896-124.928 273.408-124.928 354.304 0 57.344 89.088 49.152 149.504-44.032 315.392-64.512 115.712-108.544 217.088-118.784 272.384-3.072 19.456-10.24 34.816-14.336 34.816s-11.264-15.36-14.336-34.816zM681.984 330.24c21.504-66.56 10.24-119.808-32.768-159.744-24.576-21.504-26.624-22.528-19.456-4.096 33.792 83.968 38.912 145.408 18.432 214.016-3.072 12.288-1.024 16.384 6.144 12.288 5.12-4.096 18.432-31.744 27.648-62.464z" />
<glyph unicode="&#xe637;" d="M864 63.008h-64v-62.016h-128v62.016h-352v-62.016h-128v62.016h-64c-35.36 0-64 28.672-64 64v544c0 35.36 28.64 64 64 64h736c35.328 0 64-28.672 64-64v-544c0-35.36-28.672-64-64-64zM671.968 447.008h-127.968v128h-96v-128h-128v-96h128v-128h96v128h127.968v96zM608 831.68h-192v-64.672h-64v31.328h32v96.672h254.656v-96h33.344v-32h-64v64.672z" />
<glyph unicode="&#xe638;" d="M927.936 687.008l-68.288 68.288c-12.608 12.576-32.96 12.576-45.536 0l-409.44-409.44-194.752 196.16c-12.576 12.576-32.928 12.576-45.536 0l-68.288-68.288c-12.576-12.608-12.576-32.96 0-45.536l285.568-287.488c12.576-12.576 32.96-12.576 45.536 0l500.736 500.768c12.576 12.544 12.576 32.96 0 45.536z" />
<glyph unicode="&#xe639;" d="M640 959.84c-212.064 0-384-171.936-384-384 0-64.832 16.224-125.856 44.64-179.456l-267.008-266.944 0.224-0.192c-20.864-20.512-33.856-48.928-33.856-80.512 0-62.368 50.56-112.928 112.928-112.928 31.52 0 59.968 12.992 80.48 33.888l-0.064 0.064 266.912 266.88c53.632-28.512 114.752-44.8 179.744-44.8 212.064 0 384 171.936 384 384s-171.936 384-384 384zM153.44 9.696c-10.304-10.688-24.576-17.376-40.512-17.376-31.2 0-56.48 25.248-56.48 56.448 0 15.936 6.72 30.176 17.376 40.512l-0.288 0.256 258.112 258.112c22.56-30.432 49.44-57.312 79.808-79.936l-258.016-258.016zM640 255.808c-176.704 0-320 143.328-320 320 0 176.704 143.296 320 320 320 176.672 0 320-143.296 320-320 0-176.672-143.328-320-320-320zM640 799.84c8.8 0 16-7.168 16-16s-7.2-16-16-16c-106.048 0-192-85.984-192-192 0-8.832-7.168-16-16-16s-16 7.168-16 16c0 123.712 100.256 224 224 224z" />
<glyph unicode="&#xe63a;" d="M1024 803.008c0-120.48-323.232-402.592-383.584-523.104v-249.248c0-0.672-0.384-1.152-0.448-1.824v-28.832c0-35.328-28.672-64-63.968-64h-128c-35.328 0-64 28.672-64 64v28.768c-0.064 0.672-0.48 1.152-0.48 1.888v249.248c-60.256 120.512-383.52 402.624-383.52 523.104h0.928c-0.192 1.344-0.928 2.496-0.928 3.776 0 68.512 229.344 153.216 512 153.216s512-84.704 512-153.216c0-1.28-0.736-2.432-0.96-3.776h0.96zM517.44 896.512c-248.032 0-453.888-39.84-453.888-112.896 0-73.024 205.856-144.16 453.888-144.16 248.064 0 441.92 71.136 441.92 144.16-0.032 73.056-193.856 112.896-441.92 112.896z" />
<glyph unicode="&#xe63b;" d="M292.608 224.416l314.88 129.024 129.024 317.92-317.888-126.048-126.016-320.896zM512.928 511.072c35.328 0 64-28.672 64-64s-28.672-64-64-64-64 28.672-64 64 28.672 64 64 64zM512 960c-282.784 0-512-229.216-512-512s229.216-512 512-512 512 229.216 512 512-229.216 512-512 512zM515.584 63.328c-212.704 0-385.12 172.416-385.12 385.088s172.416 385.12 385.12 385.12c212.672 0 385.088-172.448 385.088-385.152s-172.384-385.056-385.088-385.056z" />
<glyph unicode="&#xe63c;" d="M512 960c-282.784 0-512-229.248-512-512s229.216-512 512-512 512 229.248 512 512c0 282.752-229.216 512-512 512zM576 69.76v122.24c0 17.696-14.304 32-32 32h-64c-17.696 0-32-14.304-32-32v-122.24c-160.672 27.008-287.424 153.6-314.464 314.24h122.464c17.696 0 32 14.304 32 32v64c0 17.696-14.304 32-32 32h-122.24c27.008 160.704 153.6 287.424 314.24 314.464v-122.464c0-17.664 14.304-32 32-32h64c17.696 0 32 14.336 32 32v122.464c160.64-27.040 287.232-153.76 314.24-314.464h-122.24c-17.696 0-32-14.304-32-32v-64c0-17.696 14.304-32 32-32h122.464c-27.040-160.64-153.792-287.232-314.464-314.24z" />
<glyph unicode="&#xe63d;" d="M320 960c-177 0-320-143-320-320s160-416 320-704c160 288 320 527 320 704s-143 320-320 320zM320 512c-71 0-128 57-128 128s57 128 128 128 128-57 128-128-57-128-128-128z" horiz-adv-x="640" />
</font>
</defs>
</svg>
