<?xml version="1.0" standalone="no"?>
<!DOCTYPE svg PUBLIC "-//W3C//DTD SVG 1.1//EN" "http://www.w3.org/Graphics/SVG/1.1/DTD/svg11.dtd" >
<svg xmlns="http://www.w3.org/2000/svg">
<metadata>Generated by IcoMoon</metadata>
<defs>
<font id="icomoon" horiz-adv-x="1024">
<font-face units-per-em="1024" ascent="960" descent="-64" />
<missing-glyph horiz-adv-x="1024" />
<glyph unicode="&#x20;" d="" horiz-adv-x="512" />
<glyph unicode="&#xe600;" d="M206.887 872.044c-53.481-36.042-84.873-108.127-84.873-198.816 1.162-120.917 53.481-206.953 139.52-225.556l34.88-8.138v-427.86h232.533v174.4h116.266v-174.4h232.533v859.206l-194.164 5.813c-108.127 3.488-249.973 9.302-317.407 12.789-110.453 5.813-125.567 3.488-159.284-17.439zM468.487 867.393c17.439-9.302 44.182-30.23 60.458-47.669 25.578-26.742 29.066-43.018 32.555-132.544 6.976-173.237-38.368-222.069-206.953-222.069s-213.929 48.831-206.953 220.906c3.488 110.453 13.951 132.544 84.873 175.562 43.018 26.742 188.351 30.23 236.021 5.813zM645.212 697.646c0-91.851 0-93.014-29.066-93.014-27.904 0-29.066 3.488-29.066 67.434 0 36.042-3.488 77.898-6.976 93.014-6.976 22.091-3.488 25.578 29.066 25.578h36.042v-93.014zM819.611 697.646v-93.014h-116.266v186.026h116.266v-93.014zM645.212 406.98v-93.014h-116.266v186.026h116.266v-93.014zM819.611 406.98v-93.014h-116.266v186.026h116.266v-93.014zM470.812 383.726v-69.76h-116.266v126.731l49.993 4.65c26.742 2.325 52.319 4.65 58.134 5.813 4.65 1.162 8.138-29.066 8.138-67.434zM191.774 668.579v-29.066h325.544v58.134h-325.544v-29.066z" />
<glyph unicode="&#xe601;" d="M179.607 885.546c-55.206-37.205-87.611-111.615-87.611-205.229 1.199-124.818 55.206-213.629 144.021-232.832l36.005-8.401v-441.662h240.034v180.026h120.017v-180.026h240.034v886.922l-200.427 6.001c-111.615 3.601-258.037 9.602-327.646 13.202-114.016 6.001-129.618 3.601-164.422-18.002zM449.645 880.745c18.002-9.602 45.607-31.205 62.408-49.207 26.403-27.605 30.004-44.406 33.605-136.82 7.201-178.825-39.606-229.233-213.629-229.233s-220.83 50.406-213.629 228.032c3.601 114.016 14.401 136.82 87.611 181.225 44.406 27.605 194.427 31.205 243.635 6.001zM632.072 705.522c0-94.814 0-96.014-30.004-96.014-28.804 0-30.004 3.601-30.004 69.609 0 37.205-3.601 80.411-7.201 96.014-7.201 22.804-3.601 26.403 30.004 26.403h37.205v-96.014zM812.096 705.522v-96.014h-120.017v192.027h120.017v-96.014zM632.072 405.48v-96.014h-120.017v192.027h120.017v-96.014zM812.096 405.48v-96.014h-120.017v192.027h120.017v-96.014zM452.045 381.476v-72.010h-120.017v130.819l51.606 4.8c27.605 2.4 54.007 4.8 60.009 6.001 4.8 1.199 8.401-30.004 8.401-69.609zM212.012 795.533c-13.202-16.802-8.401-26.403 30.004-66.009l46.807-48.006-46.807-48.006c-44.406-45.607-45.607-49.207-26.403-68.41s22.804-18.002 68.41 26.403l48.006 46.807 48.006-46.807c45.607-44.406 49.207-45.607 68.41-26.403s18.002 22.804-26.403 68.41l-46.807 48.006 46.807 48.006c44.406 45.607 45.607 49.207 26.403 68.41s-22.804 18.002-68.41-26.403l-48.006-46.807-45.607 44.406c-51.606 50.406-54.007 51.606-74.41 26.403z" />
<glyph unicode="&#xe602;" d="M256 815.982c-84.992-36.864-112.64-91.136-112.64-224.256v-97.28h122.88v46.080c0 38.912 3.072 46.080 20.48 46.080 19.456 0 20.48-7.168 20.48-256v-256h409.6v256c0 248.832 1.024 256 20.48 256 17.408 0 20.48-7.168 20.48-40.96v-40.96h124.928l-4.096 105.472c-3.072 97.28-5.12 109.568-31.744 143.36-36.864 49.152-96.256 78.848-154.624 78.848-40.96 0-51.2-5.12-80.896-36.864-57.344-63.488-162.816-57.344-207.872 11.264-14.336 21.504-24.576 25.6-64.512 25.6-25.6-1.024-63.488-8.192-82.944-16.384z" />
<glyph unicode="&#xe603;" d="M225.28 814.958c-21.504-7.168-40.96-34.816-40.96-56.32 0-25.6 36.864-59.392 64.512-59.392 52.224 0 75.776 64.512 37.888 102.4-20.48 20.48-33.792 23.552-61.44 13.312zM440.32 814.958c0-4.096 36.864-84.992 82.944-180.224 60.416-126.976 79.872-177.152 74.752-194.56-4.096-12.288-27.648-63.488-53.248-114.688-24.576-50.176-61.44-125.952-79.872-165.888l-33.792-74.752h89.088l64.512 133.12c34.816 73.728 66.56 133.12 69.632 133.12s34.816-60.416 69.632-133.12l62.464-133.12h93.184l-88.064 182.272c-48.128 99.328-88.064 186.368-88.064 191.488 0 6.144 37.888 88.064 83.968 183.296 45.056 95.232 82.944 175.104 82.944 177.152 0 1.024-19.456 3.072-44.032 3.072h-45.056l-59.392-128c-32.768-70.656-62.464-128-66.56-128s-34.816 57.344-67.584 128l-60.416 128h-43.008c-24.576 0-44.032-3.072-44.032-7.168zM168.96 656.238c-22.528-21.504-26.624-35.84-36.864-134.144-7.168-60.416-9.216-112.64-6.144-116.736 4.096-3.072 13.312-3.072 22.528 0 10.24 5.12 15.36 21.504 16.384 55.296 0 26.624 5.12 58.368 10.24 69.632 6.144 13.312 7.168-62.464 3.072-205.824-4.096-168.96-3.072-229.376 6.144-234.496 22.528-14.336 30.72 11.264 45.056 146.432 7.168 74.752 15.36 138.24 18.432 140.288 2.048 2.048 10.24-58.368 16.384-136.192 13.312-140.288 20.48-164.864 44.032-150.528 9.216 6.144 10.24 59.392 5.12 232.448-5.12 152.576-4.096 223.232 4.096 223.232 5.12 0 10.24-17.408 10.24-39.936 0-62.464 11.264-103.424 28.672-103.424 13.312 0 14.336 14.336 8.192 97.28-9.216 118.784-19.456 152.576-53.248 167.936-44.032 19.456-112.64 14.336-142.336-11.264z" />
<glyph unicode="&#xe604;" d="M365.568 813.934c-22.528-25.6-21.504-76.8 1.024-97.28 25.6-22.528 76.8-21.504 97.28 1.024 22.528 25.6 21.504 76.8-1.024 97.28-25.6 22.528-76.8 21.504-97.28-1.024zM288.768 652.142c-57.344-28.672-161.792-134.144-172.032-173.056-7.168-28.672 2.048-48.128 22.528-44.032 7.168 2.048 35.84 30.72 62.464 64.512 46.080 56.32 98.304 98.304 108.544 87.040 10.24-10.24-12.288-184.32-32.768-250.88-15.36-52.224-35.84-89.088-72.704-135.168-53.248-66.56-62.464-91.136-34.816-102.4 22.528-8.192 130.048 100.352 164.864 167.936 16.384 29.696 32.768 53.248 36.864 51.2 4.096-1.024 38.912-55.296 76.8-119.808 49.152-82.944 75.776-118.784 91.136-120.832 38.912-6.144 32.768 27.648-29.696 163.84-62.464 135.168-74.752 188.416-51.2 229.376 7.168 12.288 15.36 5.12 44.032-38.912 35.84-55.296 56.32-66.56 72.704-38.912 6.144 11.264-10.24 50.176-57.344 138.24-36.864 67.584-74.752 129.024-84.992 136.192-27.648 19.456-87.040 14.336-144.384-14.336zM747.52 351.086c0-18.432-7.168-20.48-81.92-20.48h-81.92v-92.16h80.896c78.848 0 81.92-1.024 84.992-24.576 3.072-24.576 3.072-24.576 82.944 21.504l79.872 46.080-76.8 45.056c-41.984 24.576-79.872 45.056-82.944 45.056s-5.12-9.216-5.12-20.48z" />
<glyph unicode="&#xe605;" d="M412.672 814.958c-4.096-11.264 1.024-22.528 15.36-31.744 30.72-20.48 28.672-58.368-4.096-79.872-21.504-15.36-55.296-62.464-55.296-80.896 0-3.072 66.56-5.12 148.48-5.12h149.504l-16.384 29.696c-8.192 16.384-28.672 39.936-46.080 52.224-36.864 26.624-40.96 62.464-8.192 83.968 14.336 9.216 19.456 20.48 15.36 31.744-5.12 14.336-21.504 17.408-99.328 17.408s-94.208-3.072-99.328-17.408zM358.4 535.406c0-19.456 7.168-20.48 153.6-20.48s153.6 1.024 153.6 20.48c0 19.456-7.168 20.48-153.6 20.48s-153.6-1.024-153.6-20.48zM358.4 438.126v-25.6h307.2v51.2h-307.2v-25.6zM360.448 221.038l3.072-141.312h143.36c134.144 0 143.36 1.024 153.6 21.504 6.144 11.264 9.216 71.68 7.168 140.288l-3.072 119.808h-307.2l3.072-140.288z" />
<glyph unicode="&#xe606;" d="M415.744 825.198c-3.072-16.384-17.408-128-31.744-248.832-15.36-120.832-30.72-229.376-34.816-240.64-6.144-14.336-15.36 17.408-31.744 107.52-29.696 163.84-34.816 176.128-63.488 172.032-17.408-2.048-33.792-25.6-68.608-97.28l-46.080-95.232h-44.032c-44.032 0-44.032 0-44.032-35.84v-36.864l128 6.144 30.72 56.32 29.696 56.32 8.192-30.72c4.096-16.384 22.528-108.544 40.96-204.8 33.792-172.032 33.792-174.080 61.44-177.152 34.816-4.096 31.744-15.36 64.512 253.952 26.624 218.112 34.816 270.336 41.984 264.192 2.048-2.048 15.36-77.824 29.696-167.936 26.624-161.792 38.912-194.56 71.68-182.272 7.168 3.072 25.6 35.84 40.96 73.728 16.384 37.888 31.744 72.704 35.84 76.8 4.096 5.12 22.528-34.816 39.936-88.064 32.768-98.304 51.2-125.952 75.776-116.736 7.168 2.048 33.792 44.032 58.368 93.184l46.080 88.064h117.76v71.68h-71.68c-79.872 0-95.232-10.24-128-81.92-10.24-22.528-21.504-40.96-24.576-40.96s-22.528 47.104-41.984 105.472c-31.744 93.184-38.912 104.448-62.464 107.52-22.528 3.072-28.672-4.096-53.248-60.416-15.36-34.816-29.696-61.44-31.744-59.392-3.072 3.072-21.504 103.424-41.984 223.232-20.48 120.832-38.912 223.232-41.984 228.352-3.072 4.096-16.384 8.192-29.696 8.192-18.432 0-25.6-7.168-29.696-27.648z" />
<glyph unicode="&#xe607;" d="M277.504 147.31h468.992v338.637c0 119.91-96.666 217.395-216.576 217.395h-35.84c-119.91 0-216.576-97.485-216.576-217.395v-338.637zM771.994 107.374h-519.987c-11.264 0-20.582-9.421-20.582-20.685v-77.619c0-11.264 9.216-20.378 20.582-20.378h519.987c11.264 0 20.582 9.114 20.582 20.378v77.619c0 11.264-9.216 20.685-20.582 20.685zM108.442 700.987l119.501-81.715c3.584-2.458 7.578-3.584 11.571-3.584 6.554 0 13.005 3.072 16.896 8.909l21.709 31.744c6.349 9.318 3.994 22.118-5.325 28.467l-119.501 81.715c-3.584 2.458-7.578 3.584-11.571 3.584-6.554 0-13.005-3.072-16.896-8.909l-21.709-31.744c-6.451-9.318-4.096-22.016 5.325-28.467zM770.355 621.729c3.994-5.939 10.445-9.114 17.101-9.114 3.891 0 7.885 1.126 11.366 3.482l120.422 80.384c9.421 6.246 11.981 19.046 5.632 28.365l-21.402 32.051c-3.994 5.939-10.445 9.114-17.101 9.114-3.891 0-7.885-1.126-11.366-3.482l-120.32-80.384c-9.421-6.246-11.981-19.046-5.632-28.365l21.299-32.051zM480.461 761.71c3.379-3.072 7.68-4.096 12.288-4.096h38.502c4.608 0 8.806 1.024 12.288 4.096 5.018 4.096 8.397 9.626 8.397 16.384v144.794c0 11.264-9.421 20.070-20.685 20.070h-38.502c-11.264 0-20.685-8.806-20.685-20.070v0-144.794c0-6.758 3.482-12.288 8.397-16.384z" />
<glyph unicode="&#xe608;" d="M778.24 776.046h-22.999c0.594 1.905 1.188 3.809 1.188 5.919 0 10.854-8.827 19.681-19.702 19.681s-19.681-8.827-19.681-19.681c0-2.109 0.573-4.014 1.208-5.919h-75.366c0.594 1.905 1.188 3.809 1.188 5.919-0.020 10.854-8.827 19.681-19.722 19.681-10.854 0-19.681-8.827-19.681-19.681 0-2.109 0.594-4.014 1.208-5.919h-75.387c0.594 1.905 1.188 3.809 1.188 5.919 0 10.854-8.806 19.681-19.681 19.681s-19.681-8.827-19.681-19.681c0-2.109 0.573-4.014 1.188-5.919h-75.387c0.594 1.905 1.208 3.809 1.208 5.919 0 10.854-8.827 19.681-19.681 19.681-10.875 0-19.702-8.827-19.702-19.681 0-2.109 0.573-4.014 1.188-5.919h-75.366c0.614 1.905 1.208 3.809 1.208 5.919 0 10.875-8.806 19.681-19.681 19.681s-19.702-8.827-19.702-19.681c0-2.109 0.573-4.014 1.188-5.919h-23.020c-31.089 0-56.32-25.252-56.32-56.32v-532.48c0-31.068 25.231-56.32 56.32-56.32h468.89l119.91 119.931v468.869c0 31.068-25.252 56.32-56.32 56.32zM803.84 263.575l-6.369-6.369h-48.23c-22.548 0-40.96-18.432-40.96-40.96v-48.251l-6.369-6.349h-456.151c-14.111 0-25.6 11.489-25.6 25.6v512h583.68v-435.671zM484.844 316.659h54.313v81.51h81.49v54.313h-81.49v81.51h-54.313v-81.51h-81.49v-54.313h81.49zM512.020 223.516c111.247 0 201.789 90.522 201.789 201.81s-90.542 201.81-201.789 201.81c-111.288 0-201.81-90.522-201.81-201.81s90.522-201.81 201.81-201.81zM512.020 596.088c94.126 0 170.742-76.616 170.742-170.762s-76.616-170.762-170.742-170.762c-94.167 0-170.783 76.616-170.783 170.762s76.616 170.762 170.783 170.762z" />
<glyph unicode="&#xe609;" d="M561.152 809.838c-24.576-36.864-23.552-51.2 7.168-96.256 20.48-30.72 26.624-33.792 31.744-19.456 4.096 9.216 2.048 33.792-4.096 54.272-7.168 20.48-13.312 49.152-14.336 63.488l-3.072 24.576-17.408-26.624zM453.632 755.566c-28.672-52.224-26.624-91.136 8.192-157.696 31.744-59.392 32.768-66.56 19.456-91.136-20.48-34.816-32.768-36.864-64.512-12.288-21.504 17.408-27.648 30.72-27.648 62.464 0 21.504-5.12 39.936-10.24 39.936-27.648 0-69.632-32.768-81.92-62.464-12.288-28.672-11.264-38.912 4.096-79.872 36.864-94.208 41.984-120.832 27.648-138.24-19.456-23.552-41.984-20.48-75.776 12.288l-30.72 27.648 6.144-68.608c10.24-136.192 92.16-212.992 227.328-212.992 123.904 0 216.064 74.752 241.664 192.512 13.312 65.536 51.2 140.288 75.776 149.504 9.216 3.072 13.312 10.24 10.24 16.384-9.216 15.36-63.488 12.288-95.232-4.096l-28.672-14.336 4.096 70.656c5.12 86.016-6.144 107.52-81.92 150.528-65.536 37.888-98.304 71.68-109.568 110.592-7.168 27.648-8.192 28.672-18.432 9.216zM520.192 332.654c57.344-36.864 71.68-129.024 26.624-164.864-49.152-38.912-141.312-21.504-154.624 28.672-11.264 40.96-4.096 64.512 28.672 98.304 16.384 17.408 29.696 39.936 29.696 50.176 0 20.48 27.648 15.36 69.632-12.288z" />
<glyph unicode="&#xe60a;" d="M508.928 699.246c3.072-11.264 9.216-20.48 14.336-20.48 11.264 0 11.264 3.072 3.072 24.576-9.216 23.552-23.552 20.48-17.408-4.096zM542.72 669.55c0-20.48-3.072-22.528-12.288-13.312-19.456 19.456-30.72 14.336-18.432-8.192 12.288-23.552 38.912-26.624 47.104-6.144 3.072 8.192 1.024 23.552-5.12 33.792-9.216 16.384-10.24 15.36-11.264-6.144zM273.408 605.038c13.312-12.288 25.6-19.456 29.696-15.36 10.24 10.24-16.384 37.888-34.816 37.888-13.312 0-12.288-4.096 5.12-22.528zM571.392 609.134c-3.072-9.216-1.024-26.624 3.072-37.888 6.144-15.36 8.192-11.264 8.192 18.432 1.024 40.96-4.096 49.152-11.264 19.456zM331.776 589.678c5.12-31.744 4.096-32.768-19.456-23.552-35.84 13.312-33.792-7.168 2.048-23.552 21.504-9.216 27.648-9.216 31.744 1.024 2.048 7.168 8.192 10.24 13.312 7.168 12.288-8.192 0 24.576-19.456 51.2-13.312 19.456-14.336 18.432-8.192-12.288zM522.24 598.894c0-5.12 9.216-17.408 20.48-27.648 23.552-21.504 27.648-4.096 4.096 19.456-17.408 18.432-24.576 20.48-24.576 8.192zM389.12 546.67c0-21.504 39.936-74.752 40.96-54.272 0 15.36-28.672 73.728-35.84 73.728-3.072 0-5.12-9.216-5.12-19.456zM593.92 528.238c0-28.672 3.072-34.816 10.24-23.552 13.312 20.48 13.312 48.128 0 56.32-6.144 4.096-10.24-9.216-10.24-32.768zM532.48 537.454c0-5.12 11.264-19.456 25.6-32.768 28.672-26.624 33.792-16.384 9.216 18.432-15.36 22.528-34.816 30.72-34.816 14.336zM698.368 508.782c2.048-11.264 22.528-23.552 54.272-31.744 92.16-26.624 120.832-76.8 66.56-116.736-94.208-68.608-438.272-68.608-532.48 0-28.672 20.48-37.888 56.32-20.48 77.824 8.192 10.24 8.192 15.36-1.024 21.504-7.168 4.096-20.48-2.048-32.768-17.408-16.384-20.48-18.432-35.84-14.336-86.016 14.336-185.344 153.6-291.84 362.496-279.552 180.224 11.264 291.84 114.688 307.2 285.696 5.12 57.344 4.096 61.44-26.624 90.112-28.672 26.624-126.976 72.704-155.648 72.704-6.144 0-9.216-7.168-7.168-16.384zM327.68 509.806c0-7.168 58.368-35.84 73.728-35.84 20.48 1.024-32.768 40.96-54.272 40.96-10.24 0-19.456-2.048-19.456-5.12zM450.56 482.158c0-14.336 9.216-36.864 21.504-50.176l20.48-24.576-5.12 35.84c-4.096 19.456-13.312 41.984-21.504 51.2-13.312 13.312-15.36 11.264-15.36-12.288zM561.152 460.654c24.576-41.984 27.648-52.224 13.312-44.032-10.24 7.168-18.432-29.696-13.312-62.464 2.048-15.36 10.24-23.552 22.528-23.552 14.336 0 18.432 5.12 14.336 18.432-5.12 14.336-3.072 14.336 10.24-2.048 21.504-26.624 21.504 1.024 1.024 28.672-8.192 11.264-15.36 31.744-15.36 46.080 0 29.696-6.144 39.936-35.84 62.464-18.432 14.336-18.432 12.288 3.072-23.552zM608.256 468.846c-6.144-24.576 0-45.056 10.24-34.816 11.264 11.264 17.408 60.416 7.168 60.416-6.144 0-13.312-11.264-17.408-25.6zM378.88 449.39c0-7.168 46.080-33.792 71.68-40.96l25.6-7.168-28.672 25.6c-23.552 22.528-68.608 36.864-68.608 22.528zM507.904 438.126c-3.072-9.216 1.024-33.792 10.24-54.272 14.336-33.792 17.408-35.84 24.576-17.408 4.096 12.288 2.048 32.768-8.192 51.2-19.456 39.936-19.456 39.936-26.624 20.48zM631.808 420.718c-15.36-38.912-16.384-49.152-6.144-54.272 12.288-8.192 22.528 18.432 17.408 48.128-4.096 20.48-5.12 20.48-11.264 6.144zM430.080 386.926c0-9.216 65.536-46.080 81.92-46.080 23.552 1.024-37.888 51.2-62.464 51.2-10.24 0-19.456-2.048-19.456-5.12zM645.12 361.326c-9.216-16.384-8.192-20.48 5.12-20.48 8.192 0 15.36 9.216 15.36 20.48s-2.048 20.48-5.12 20.48c-2.048 0-9.216-9.216-15.36-20.48z" />
<glyph unicode="&#xe60b;" d="M531.456 782.19c-23.552-18.432-23.552-21.504-10.24-68.608 8.192-27.648 14.336-58.368 15.36-67.584 1.024-25.6 13.312-22.528 32.768 7.168 15.36 23.552 15.36 28.672 0 67.584-9.216 23.552-14.336 51.2-11.264 61.44 8.192 24.576 3.072 24.576-26.624 0zM419.84 691.054c0-9.216-9.216-32.768-21.504-52.224-25.6-41.984-22.528-70.656 10.24-91.136 22.528-15.36 23.552-15.36 17.408 4.096-3.072 11.264 3.072 35.84 15.36 59.392s18.432 49.152 15.36 62.464c-7.168 28.672-36.864 43.008-36.864 17.408zM665.6 697.198c0-9.216-15.36-34.816-34.816-58.368-35.84-43.008-38.912-70.656-10.24-94.208 11.264-9.216 14.336-8.192 14.336 6.144 0 10.24 14.336 33.792 30.72 53.248 33.792 38.912 37.888 61.44 15.36 91.136-12.288 16.384-14.336 17.408-15.36 2.048zM404.48 488.302c-120.832-25.6-193.536-59.392-238.592-111.616-76.8-87.040-22.528-184.32 137.216-242.688 51.2-19.456 81.92-22.528 203.776-23.552 161.792 0 224.256 13.312 305.152 67.584 194.56 129.024 10.24 318.464-305.152 315.392-45.056-1.024-91.136-3.072-102.4-5.12zM710.656 437.102c70.656-26.624 129.024-83.968 129.024-124.928 0-105.472-209.92-186.368-407.552-156.672-93.184 14.336-197.632 60.416-223.232 98.304-50.176 76.8 10.24 154.624 151.552 194.56 76.8 21.504 281.6 14.336 350.208-11.264zM403.456 433.006c-57.344-11.264-144.384-56.32-157.696-80.896-48.128-90.112 55.296-163.84 242.688-173.056 162.816-7.168 286.72 38.912 306.176 115.712 24.576 98.304-197.632 176.128-391.168 138.24zM660.48 398.19c93.184-38.912 112.64-94.208 52.224-147.456-96.256-83.968-372.736-64.512-421.888 29.696-24.576 48.128 10.24 91.136 100.352 123.904 66.56 23.552 205.824 20.48 269.312-6.144zM442.368 391.022c-58.368-11.264-104.448-39.936-111.616-69.632-14.336-58.368 57.344-98.304 176.128-98.304 45.056 0 94.208 3.072 109.568 7.168 36.864 11.264 90.112 57.344 90.112 78.848 0 29.696-43.008 60.416-107.52 77.824-66.56 16.384-90.112 17.408-156.672 4.096zM612.352 351.086c45.056-27.648 45.056-64.512 0-88.064-63.488-32.768-201.728-16.384-228.352 26.624-12.288 19.456 7.168 53.248 38.912 66.56 50.176 22.528 149.504 19.456 189.44-5.12zM453.632 338.798c-28.672-14.336-30.72-45.056-4.096-59.392 47.104-24.576 158.72-5.12 152.576 27.648-7.168 37.888-97.28 56.32-148.48 31.744z" />
<glyph unicode="&#xe60c;" d="M445.44 766.83c-89.088-89.088 25.6-227.328 124.928-153.6 77.824 58.368 38.912 178.176-58.368 178.176-30.72 0-48.128-6.144-66.56-24.576zM289.792 647.022c-50.176-18.432-55.296-87.040-8.192-117.76 41.984-27.648 97.28 4.096 97.28 56.32 0 45.056-47.104 76.8-89.088 61.44zM696.32 650.094c-68.608-21.504-67.584-108.544 1.024-130.048 26.624-9.216 68.608 18.432 76.8 51.2 11.264 45.056-34.816 92.16-77.824 78.848zM143.36 551.79c-6.144-8.192-10.24-25.6-8.192-38.912 2.048-19.456 9.216-23.552 38.912-23.552s36.864 4.096 38.912 23.552c4.096 28.672-14.336 53.248-38.912 53.248-10.24 0-23.552-7.168-30.72-14.336zM819.2 551.79c-6.144-8.192-10.24-25.6-8.192-38.912 2.048-19.456 9.216-23.552 38.912-23.552s36.864 4.096 38.912 23.552c4.096 28.672-14.336 53.248-38.912 53.248-10.24 0-23.552-7.168-30.72-14.336zM435.2 536.43c-73.728-45.056-87.040-88.064-87.040-279.552v-141.312h327.68v141.312c0 192.512-17.408 244.736-94.208 284.672-38.912 20.48-109.568 17.408-146.432-5.12zM257.024 469.87c-43.008-23.552-51.2-54.272-52.224-177.152v-115.712h110.592l4.096 136.192c3.072 73.728 8.192 143.36 13.312 153.6 6.144 14.336 2.048 17.408-21.504 17.408-16.384-1.024-40.96-7.168-54.272-14.336zM691.2 466.798c5.12-10.24 10.24-79.872 13.312-153.6l4.096-136.192h110.592v112.64c0 64.512-5.12 122.88-12.288 138.24-14.336 31.744-56.32 56.32-96.256 56.32-21.504 0-25.6-3.072-19.456-17.408zM118.784 420.718c-11.264-16.384-16.384-47.104-16.384-107.52v-84.992h71.68v84.992c0 46.080 3.072 94.208 6.144 107.52 5.12 19.456 2.048 22.528-19.456 22.528-15.36 0-32.768-9.216-41.984-22.528zM843.776 420.718c3.072-13.312 6.144-61.44 6.144-107.52v-84.992h71.68v84.992c0 96.256-15.36 130.048-58.368 130.048-21.504 0-24.576-3.072-19.456-22.528z" />
<glyph unicode="&#xe60d;" d="M619.52 811.886c-56.32-27.648-449.536-422.912-470.016-473.088-68.608-161.792 86.016-316.416 247.808-247.808 50.176 20.48 446.464 413.696 473.088 471.040 79.872 164.864-87.040 330.752-250.88 249.856zM769.024 765.806c61.44-32.768 88.064-116.736 56.32-177.152-8.192-15.36-61.44-73.728-117.76-130.048l-103.424-102.4-94.208 95.232-95.232 94.208 97.28 98.304c53.248 54.272 111.616 107.52 128 117.76 36.864 23.552 88.064 24.576 129.024 4.096z" />
<glyph unicode="&#xe60e;" d="M204.8 801.646c-38.912-38.912-14.336-102.4 38.912-102.4 25.6 0 63.488 33.792 63.488 56.32 0 20.48-46.080 66.56-66.56 66.56-8.192 0-24.576-9.216-35.84-20.48zM596.992 812.91c-92.16-23.552-156.672-98.304-164.864-190.464l-4.096-56.32h57.344c54.272 0 57.344 1.024 57.344 25.6 0 38.912 25.6 94.208 49.152 106.496 12.288 6.144 44.032 11.264 72.704 11.264 43.008 0 54.272-4.096 71.68-26.624 13.312-17.408 21.504-41.984 21.504-67.584 0-34.816-8.192-48.128-67.584-111.616-73.728-77.824-90.112-110.592-100.352-190.464l-7.168-54.272h123.904v40.96c0 55.296 17.408 86.016 87.040 153.6 32.768 30.72 64.512 70.656 72.704 89.088 27.648 63.488 11.264 159.744-34.816 210.944-44.032 49.152-159.744 77.824-234.496 59.392zM178.176 668.526c-29.696-12.288-41.984-53.248-51.2-168.96-6.144-82.944-5.12-97.28 8.192-97.28 18.432 0 28.672 40.96 28.672 110.592 0 25.6 3.072 43.008 8.192 38.912 4.096-4.096 7.168-109.568 7.168-234.496 0-195.584 2.048-227.328 15.36-227.328 12.288 0 18.432 29.696 31.744 143.36 17.408 156.672 20.48 153.6 38.912-29.696 10.24-101.376 19.456-126.976 41.984-113.664 8.192 5.12 9.216 73.728 6.144 243.712-3.072 137.216-2.048 224.256 3.072 206.848 5.12-16.384 9.216-53.248 10.24-79.872 1.024-33.792 6.144-50.176 16.384-55.296 9.216-3.072 18.432-3.072 21.504 0s1.024 55.296-5.12 116.736c-10.24 97.28-15.36 113.664-37.888 134.144-27.648 23.552-99.328 30.72-143.36 12.288zM583.68 151.406v-66.56h122.88v133.12h-122.88v-66.56z" />
<glyph unicode="&#xe60f;" d="M456.704 806.766c-17.408-18.432-34.816-25.6-61.44-25.6-20.48 0-36.864-4.096-36.864-10.24 0-5.12-25.6-10.24-56.32-10.24h-56.32v-686.080h532.48v686.080h-56.32c-30.72 0-56.32 5.12-56.32 10.24 0 6.144-16.384 10.24-36.864 10.24-26.624 0-44.032 7.168-61.44 25.6-15.36 16.384-34.816 25.6-55.296 25.6s-39.936-9.216-55.296-25.6zM537.6 791.406c4.096-6.144-7.168-10.24-25.6-10.24s-29.696 4.096-25.6 10.24c3.072 6.144 15.36 10.24 25.6 10.24s22.528-4.096 25.6-10.24zM358.4 694.126c0-13.312 23.552-15.36 153.6-15.36s153.6 2.048 153.6 15.36c0 10.24 10.24 15.36 30.72 15.36h30.72v-583.68h-430.080v583.68h30.72c20.48 0 30.72-5.12 30.72-15.36zM394.24 617.326c-18.432-20.48-18.432-21.504 20.48-61.44l39.936-40.96-37.888-38.912-38.912-38.912 21.504-19.456c20.48-18.432 21.504-18.432 59.392 18.432l38.912 37.888 39.936-40.96c39.936-40.96 39.936-40.96 60.416-20.48s20.48 20.48-19.456 61.44l-39.936 40.96 39.936 40.96c38.912 39.936 38.912 40.96 20.48 61.44l-19.456 21.504-36.864-36.864c-20.48-19.456-40.96-35.84-46.080-35.84s-25.6 16.384-46.080 35.84l-36.864 36.864-19.456-21.504zM548.864 325.486l-68.608-58.368-28.672 26.624-27.648 26.624-24.576-25.6-24.576-26.624 106.496-106.496 179.2 179.2-43.008 43.008-68.608-58.368z" />
<glyph unicode="&#xe610;" d="M863.792 213.982c0.704 9.376-1.92 24.016-5.856 32.688l-42.16 92.88c-3.936 8.672-7.728 15.728-8.464 15.76-0.656 0.016-0.832 0.032-0.464 0.032 0.048 0 0.112 0 0.176 0v0c0.576 0-1.168 7.344-3.904 16.4l-9.68 32.048c-2.736 9.056-12.096 20.544-19.056 27.456-29.84 29.728-38.112 82-69.472 82-0.080 0-0.16-0.016-0.24-0.016-35.664-0.112-61.184-26-61.184-58.528 0 0-2.784-49.328 22.672-85.056 5.616-7.872 13.248-20.752 15.28-29.952l4.176-19.024c2.032-9.216-4.672-16.688-14.944-16.688h-271.648c-10.272 0-24.256 5.6-31.216 12.512-15.712 15.584-42.416 42.080-59.488 58.976-1.088 1.072-2.256 2.24-3.264 3.232-6.976 6.912-12.656 20.112-12.656 29.504v48.208c0 26.432-27.424 47.856-61.248 47.856s-61.248-21.424-61.248-47.856v-48.208c0-9.392 1.168-24.576 2.608-33.888 2.384-15.424 5.904-38.096 8.304-53.504 1.456-9.296 9.168-21.6 17.184-27.488l118.928-87.184c8.016-5.872 22.816-11.28 33.056-12.080l182.992-14.144c10.24-0.784 20.512-8.832 22.928-17.968l26.768-100.928c2.416-9.136 12.72-16.544 22.992-16.544h245.408c10.272 0 19.184 7.6 19.888 16.976l-10.064 113.888 2.896 38.64zM320.864 776.158v-120.992l-94.176-79.92 81.648-0.112v-88.624c5.056-9.184 8.080-19.312 8.080-30.080v-48.208c0.032-2.848 2.96-9.904 5.536-12.464l62.768-62.224c2.304-2.288 10.096-5.552 14.32-5.552h45.456v161.504h124v-161.504h90.912l-1.44 6.56c-0.8 3.616-5.376 12.752-11.376 21.184-28.48 39.968-27.424 92.336-27.12 99.568 0.32 45.92 37.6 81.808 85.184 81.936v37.376l81.648-0.112-280.24 237.808-113.2-96.048v59.904h-72z" />
<glyph unicode="&#xe611;" d="M347.097 39.948c0-50.311-40.785-91.097-91.097-91.097s-91.097 40.785-91.097 91.097c0 50.311 40.785 91.097 91.097 91.097s91.097-40.785 91.097-91.097zM898.481 39.948c0-50.311-40.785-91.097-91.097-91.097s-91.097 40.785-91.097 91.097c0 50.311 40.785 91.097 91.097 91.097s91.097-40.785 91.097-91.097zM583.326 729.178c0.039 12.918 0.079 64.827 0.079 78.769 0 39.424-31.98 71.404-71.404 71.404s-71.365-31.98-71.365-71.404c0-13.942 0.039-66.206 0.079-78.769h142.612zM993.831 336.12l-245.524 314.289c-17.999 21.701-30.169 39.385-59.077 39.385h-649.846c-21.701 0-39.385-17.684-39.385-39.385v-551.385c0-21.701 17.684-39.385 39.385-39.385h78.533c9.649 67.86 67.584 120.399 138.082 120.399s128.433-52.539 138.082-120.399h276.401c9.61 67.308 66.914 119.217 136.94 119.217s127.291-51.909 136.94-119.217h40.251c21.701 0 39.385 17.684 39.385 39.385 0 0 0 120.241 0 157.538s-30.169 79.557-30.169 79.557zM315.077 287.559c-91.648 0-165.927 74.319-165.927 165.927s74.279 165.927 165.927 165.927 165.927-74.319 165.927-165.927-74.279-165.927-165.927-165.927zM630.154 335.332v236.308h99.17c6.302 0 15.163-9.295 15.163-9.295l149.386-193.536c7.326-10.791 15.321-23.631 15.321-33.477h-279.040zM275.692 571.64h78.769v-236.308h-78.769v236.308zM196.923 492.871h236.308v-78.769h-236.308v78.769z" />
<glyph unicode="&#xe612;" d="M885.719 451.95c19.64 0 35.533 15.954 35.533 35.594v25.805c0 19.681-15.892 35.594-35.533 35.594h-177.193v365.711c0 19.661-15.913 35.574-35.553 35.574h-321.905c-19.661 0-35.574-15.913-35.574-35.574v-365.732h-60.498v370.729c0 19.64-15.913 35.594-35.574 35.594h-87.020v-71.188h51.405v-335.094h-45.466c-19.64 0-35.594-15.892-35.594-35.574v-25.825c0-19.64 15.913-35.574 35.594-35.574h177.152v-210.473h-41.472v158.147c0 19.702-15.913 35.615-35.574 35.615h-100.127c-19.64 0-35.594-15.913-35.594-35.615v-412.365c0-19.681 15.913-35.553 35.594-35.553h100.106c19.661 0 35.574 15.872 35.574 35.553v158.208h476.017v-158.208c0-19.681 15.913-35.553 35.553-35.553h100.147c19.64 0 35.533 15.872 35.533 35.553v412.303c0 19.722-15.892 35.635-35.533 35.635h-100.147c-19.64 0-35.553-15.913-35.553-35.635v-158.106h-41.492v210.452h177.193zM386.683 395.2c6.82 3.318 14.377 5.427 22.528 5.427 28.406 0 51.405-22.999 51.405-51.466 0-28.385-22.999-51.384-51.405-51.384-8.131 0-15.708 2.048-22.528 5.386-17.039 8.376-28.897 25.784-28.897 45.998 0 20.296 11.858 37.683 28.897 46.039zM637.338 303.163c-6.799-3.338-14.418-5.386-22.589-5.386-28.344 0-51.364 22.999-51.364 51.384 0 28.426 23.020 51.425 51.364 51.425 8.131 0 15.77-2.068 22.589-5.427 17.080-8.376 28.836-25.743 28.836-45.998s-11.837-37.581-28.836-45.998zM386.683 879.081h250.655v-303.534h-250.655v303.534z" />
<glyph unicode="&#xe613;" d="M498.688 743.278c-3.072-5.12-2.048-15.36 2.048-22.528 6.144-9.216-35.84-76.8-125.952-204.8l-135.168-190.464 91.136-3.072c104.448-3.072 118.784 4.096 167.936 87.040l24.576 43.008 44.032-63.488 43.008-63.488 179.2-6.144-26.624 40.96c-13.312 22.528-69.632 108.544-122.88 191.488-73.728 111.616-96.256 154.624-91.136 171.008 5.12 15.36 3.072 19.456-9.216 14.336-8.192-3.072-19.456-1.024-25.6 5.12-5.12 5.12-12.288 6.144-15.36 1.024zM133.12 197.486v-40.96h92.16v81.92h-92.16v-40.96zM296.96 197.486v-40.96h102.4v81.92h-102.4v-40.96zM460.8 197.486v-40.96h102.4v81.92h-102.4v-40.96zM624.64 197.486v-40.96h102.4v81.92h-102.4v-40.96zM798.72 197.486v-40.96h92.16v81.92h-92.16v-40.96z" />
<glyph unicode="&#xe614;" d="M497.664 756.59c-10.24-55.296-54.272-156.672-118.784-272.384-93.184-165.888-101.376-226.304-44.032-315.392 80.896-124.928 273.408-124.928 354.304 0 57.344 89.088 49.152 149.504-44.032 315.392-64.512 115.712-108.544 217.088-118.784 272.384-3.072 19.456-10.24 34.816-14.336 34.816s-11.264-15.36-14.336-34.816zM681.984 335.726c21.504-66.56 10.24-119.808-32.768-159.744-24.576-21.504-26.624-22.528-19.456-4.096 33.792 83.968 38.912 145.408 18.432 214.016-3.072 12.288-1.024 16.384 6.144 12.288 5.12-4.096 18.432-31.744 27.648-62.464z" />
<glyph unicode="&#xe615;" d="M558.144 695.598c10.656 11.008 16.672 25.648 16.672 41.088 0 32.784-26.672 59.44-59.424 59.44-32.768 0-59.408-26.656-59.408-59.44 0-18.464 8.352-35.328 22.672-46.512l-200.144-681.184 41.264-12.096 19.392 65.92 285.392 254.208 90.144-306.816 3.968-13.296 41.216 12.096-201.744 686.592zM489.68 575.166l29.52 100.432 17.232-58.704-46.752-41.728zM480.912 509.726l68.928 61.504 45.536-154.992-114.464 93.488zM602.448 354.942l-240.368-214.096 97.248 331.024 143.12-116.928zM607.936 756.958c0-10.576-2.768-21.040-7.952-30.272l-0.896-3.024 10-11.744 2.768 4.544c7.568 12.224 11.536 26.256 11.536 40.496 0 13.552-3.648 26.928-10.512 38.72l-1.872 3.2-3.248-1.824c-2.128-1.168-4.336-2.176-6.608-3.040l-4.288-1.568 2.336-3.92c5.712-9.552 8.736-20.464 8.736-31.568zM633.28 680.862c0.576-0.592 1.168-1.152 1.712-1.76l2.944-3.248 2.784 3.424c18.080 21.968 28.016 49.568 28.016 77.664 0 25.552-7.968 50.16-23.056 71.232l-3.056 4.24-3.104-4.208c-1.6-2.208-3.232-4.432-4.944-6.544l-1.76-2.192 1.584-2.304c12.368-17.968 18.88-38.752 18.88-60.208 0-24.608-8.192-47.792-23.664-67.088l-1.824-2.288 3.216-4.336c0.736-0.816 1.504-1.616 2.272-2.384zM702.56 756.958c0-37.056-13.488-73.168-37.92-101.664l-2.416-2.832 2.784-2.48c1.376-1.2 2.768-2.384 4.16-3.536l4.816-4.096 2.448 2.864c26.832 31.264 41.6 70.96 41.6 111.728 0 42.128-15.552 82.752-43.712 114.336l-3.12 3.568-2.768-3.856c-1.584-2.192-3.136-4.464-4.704-6.8l-1.68-2.384 1.92-2.208c24.896-28.528 38.592-64.944 38.592-102.64zM751.824 756.958c0-48.688-17.44-96-49.088-133.232l-2.512-2.992 3.040-2.416c1.776-1.472 3.568-2.992 5.312-4.496l3.504-3.024 2.464 2.912c34.032 40.016 52.752 90.88 52.752 143.248 0 55.904-20.976 109.328-59.072 150.432l-2.512 2.688-2.768-2.416c-1.312-1.12-2.64-2.352-3.904-3.536l-4.864-4.432 2.608-2.832c35.504-38.208 55.040-87.888 55.040-139.904zM414.928 711.902l10.448 12.384-1.344 2.4c-5.2 9.216-7.952 19.68-7.952 30.272 0 11.104 3.024 22.016 8.72 31.584l2.336 3.92-4.272 1.568c-2.256 0.864-4.48 1.888-6.608 3.040l-3.248 1.824-1.856-3.2c-6.912-11.792-10.528-25.168-10.528-38.72 0-14.24 3.984-28.272 11.52-40.496l2.784-4.576zM383.296 679.278l2.768-3.424 2.96 3.248c0.544 0.608 1.12 1.168 1.712 1.76 0.768 0.768 1.536 1.568 2.464 2.656l3.040 4.064-1.808 2.288c-15.504 19.296-23.712 42.48-23.712 67.088 0 21.456 6.528 42.256 18.88 60.208l1.6 2.304-1.76 2.192c-1.712 2.112-3.36 4.336-4.96 6.544l-3.088 4.224-3.040-4.24c-15.104-21.072-23.088-45.68-23.088-71.232 0-28.112 9.968-55.712 28.032-77.68zM347.6 645.23l2.448-2.864 4.8 4.096c1.392 1.152 2.768 2.336 4.144 3.536l2.8 2.48-2.448 2.832c-24.432 28.496-37.888 64.608-37.888 101.664 0 37.696 13.712 74.112 38.592 102.656l1.904 2.208-1.632 2.352c-1.568 2.336-3.136 4.608-4.688 6.8l-2.768 3.856-3.152-3.568c-28.192-31.6-43.712-72.224-43.712-114.336 0-40.768 14.768-80.448 41.6-111.712zM312.544 611.342l2.896 2.496c1.76 1.504 3.536 3.024 5.344 4.496l3.024 2.416-2.512 2.992c-31.68 37.232-49.104 84.544-49.104 133.232 0 52.016 19.568 101.696 55.056 139.904l2.592 2.832-4.832 4.432c-1.312 1.184-2.624 2.416-3.92 3.536l-2.784 2.416-2.464-2.688c-38.128-41.12-59.12-94.544-59.12-150.432 0-52.368 18.736-103.216 52.768-143.248l3.056-2.384z" />
<glyph unicode="&#xe616;" d="M400 921.326c-62.72-30.080-99.84-81.92-104.32-147.84-3.84-54.4 20.48-111.36 134.4-311.68 24.32-43.52 46.080-80 48.64-81.28 5.12-2.56 104.32 168.96 142.080 245.76 41.6 83.2 51.2 117.12 44.8 155.52-7.68 48-25.6 81.28-60.8 112-56.96 49.92-135.68 60.8-204.8 27.52zM527.36 832.366c78.72-46.080 53.76-161.92-37.12-172.16-68.48-7.68-120.96 59.52-96.64 122.88 12.16 32.64 26.24 46.080 58.88 58.24 26.88 9.6 46.72 7.040 74.88-8.96zM72.96 713.326c-12.8-5.76-22.4-16-27.52-29.44-5.12-14.72-7.040-117.12-7.040-334.080 0-353.28 0-350.72 42.88-363.52 17.28-5.12 151.040-6.4 455.040-5.12l431.36 1.92 30.72 35.84v664.32l-30.72 35.84h-234.88l-14.080-38.4c-7.68-21.12-14.080-42.24-14.080-46.080-0.64-6.4 23.68-8.32 101.76-8.32h102.4v-70.4c0-67.84-0.64-70.4-14.080-72.96-96.64-19.84-97.28-20.48-87.68-49.28 4.48-12.16 9.6-24.32 12.16-26.88 2.56-3.2 21.76-0.64 42.24 4.48s39.68 7.68 42.88 4.48c2.56-2.56 3.84-79.36 3.2-170.88l-1.92-165.76-771.2-3.2v105.6c0 58.24 1.92 105.6 4.48 105.6s16-10.88 29.44-24.32l24.32-23.68 19.2 21.12c10.24 11.52 18.56 23.040 18.56 25.6s-21.76 26.24-48 51.84l-48 47.36v241.28h60.8c42.24 0 60.8 2.56 60.8 7.68 0 3.84-6.4 25.6-13.44 48l-14.080 40.32h-67.84c-42.24-0.64-75.52-3.84-87.68-8.96zM704.64 404.206c-15.36-13.44-39.68-41.6-53.12-62.72l-24.96-38.4 20.48-17.28c11.52-10.24 24.32-17.92 28.16-17.92 3.2 0 15.36 14.72 25.6 32.64 10.88 17.92 30.080 42.24 43.52 53.76l24.32 21.12-16 26.24c-9.6 14.72-17.28 26.24-18.56 26.24-0.64 0-14.080-10.88-29.44-23.68zM560 239.086c-14.080-8.96-42.24-22.4-62.72-30.080-39.040-14.080-38.4-12.8-23.040-55.68 5.12-12.16 8.96-14.080 23.68-10.88 26.88 6.4 106.24 46.72 119.040 60.8 10.88 12.16 10.88 12.8-6.4 32-9.6 10.88-19.2 19.84-21.12 19.84s-15.36-7.68-29.44-16zM263.040 225.006l-15.36-23.68 15.36-12.16c21.12-17.28 87.040-47.36 115.2-52.48 20.48-3.84 23.68-2.56 26.88 10.88 2.56 7.68 4.48 22.4 4.48 32.64 0 13.44-3.2 17.28-14.080 17.28-16.64 0-90.88 33.92-97.28 44.16-8.32 12.8-19.84 7.040-35.2-16.64z" />
<glyph unicode="&#xe617;" d="M204.8 453.486v-378.88h153.6v337.92h307.2v-337.92h153.6v757.76h-153.6v-296.96h-307.2v296.96h-153.6v-378.88z" />
<glyph unicode="&#xe618;" d="M1021.844 116.105c0-114.645-257.013-174.619-510.922-174.619-253.952 0-510.922 59.974-510.922 174.619 0 94.725 165.22 139.005 263.696 156.941l11.641-63.725c-159.183-28.931-210.664-75.323-210.664-93.216 0-38.675 169.488-109.945 446.292-109.945s446.205 71.141 446.205 109.945c0 18.971-44.021 62.949-210.621 93.216l11.598 63.725c174.921-31.949 263.696-84.636 263.696-156.941zM510.922 77.301c0 0-258.695 405.202-258.695 629.491 0 142.282 116.413 258.695 258.695 258.695 142.239 0 258.695-116.413 258.695-258.695 0-219.891-258.695-629.491-258.695-629.491zM510.922 620.56c47.427 0 86.232 38.804 86.232 86.232s-38.804 86.232-86.232 86.232c-47.47 0-86.232-38.804-86.232-86.232s38.804-86.232 86.232-86.232z" horiz-adv-x="1022" />
<glyph unicode="&#xe619;" d="M143.36 453.486v-378.88h583.68v446.464l76.8 75.776c41.984 41.984 76.8 83.968 76.8 92.16 0 20.48-103.424 122.88-123.904 122.88-8.192 0-37.888-23.552-65.536-51.2l-50.176-51.2-124.928 122.88h-372.736v-378.88zM481.28 684.91c0-68.608 4.096-98.304 13.312-101.376s9.216-7.168-2.048-20.48c-11.264-14.336-33.792-17.408-119.808-17.408-64.512 0-106.496-4.096-106.496-10.24s34.816-10.24 84.992-10.24h86.016l-51.2-102.4h-59.392c-47.104 0-60.416-3.072-60.416-15.36 0-11.264 12.288-15.36 51.2-15.36 28.672 0 51.2-3.072 51.2-7.168s-7.168-27.648-16.384-51.2c-15.36-39.936-20.48-44.032-51.2-44.032-24.576 0-34.816-5.12-34.816-15.36 0-13.312 25.6-15.36 168.96-15.36 141.312 0 168.96 2.048 168.96 15.36 0 11.264-19.456 15.36-89.088 17.408l-90.112 3.072 61.44 24.576c40.96 16.384 80.896 44.032 120.832 81.92l58.368 56.32v-331.776l-232.448 2.048-233.472 3.072-3.072 312.32c-1.024 172.032 0 317.44 3.072 324.608 3.072 10.24 40.96 13.312 143.36 13.312h138.24v-96.256zM568.32 698.222c24.576-30.72 25.6-33.792 9.216-51.2-9.216-11.264-25.6-19.456-36.864-19.456-15.36 0-18.432 8.192-18.432 51.2 0 28.672 4.096 51.2 9.216 51.2s21.504-14.336 36.864-31.744zM527.36 362.35c-6.144-5.12-34.816-19.456-65.536-31.744-49.152-18.432-57.344-19.456-70.656-6.144s-13.312 20.48 3.072 59.392c9.216 24.576 21.504 55.296 27.648 68.608 9.216 25.6 9.216 25.6 62.464-27.648 33.792-33.792 49.152-56.32 43.008-62.464z" />
<glyph unicode="&#xe61a;" d="M889.681 715.103c-8.361 81.741-21.68 145.384-42.752 170.4-86.879 102.857-695.46 110.385-764.558 0-16.903-27.044-28.757-90.462-36.712-170.535-25.669-3.020-45.659-24.633-45.659-51.091v-100.131c0-22.266 14.108-41.039 33.805-48.364-4.665-157.712-0.879-322.252 6.107-404.083 0-63.17 42.437-52.691 42.437-52.691h39.777v-68.196c0-27.044 27.878-48.927 62.224-48.927 34.391 0 62.269 21.883 62.269 48.927v68.196h462.769v-68.196c0-27.044 27.855-48.927 62.246-48.927 34.346 0 62.224 21.883 62.224 48.927v68.196h13.071c0 0 49.941-6.851 53.142 22.897 0 81.605 5.138 262.462 0.901 433.178 20.937 6.558 36.216 25.85 36.216 49.062v100.131c0.023 27.089-20.937 49.062-47.507 51.226zM231.001 870.832h467.298v-70.698h-467.298v70.698zM237.672 139.133c-36.69 0-66.416 29.748-66.416 66.438 0 36.667 29.726 66.393 66.416 66.393s66.438-29.726 66.438-66.393c0-36.69-29.726-66.438-66.438-66.438zM695.798 139.133c-36.667 0-66.461 29.748-66.461 66.438 0 36.667 29.771 66.393 66.461 66.393s66.416-29.726 66.416-66.393c0.023-36.69-29.726-66.438-66.416-66.438zM780.243 429.856h-631.185v331.064h631.185v-331.064z" horiz-adv-x="937" />
<glyph unicode="&#xe61b;" d="M987.733 84.419l-85.333 347.733c-6.4 23.467-29.867 38.4-53.333 34.133 0 0-170.667-34.133-174.933-34.133-32-59.733-66.133-117.333-98.133-170.667-14.933-23.467-40.533-38.4-68.267-38.4s-53.333 14.933-68.267 38.4c-49.067 81.067-102.4 174.933-142.933 262.4l-155.733-61.867c-12.8-6.4-23.467-17.067-27.733-32l-85.333-343.467c-4.267-14.933 0-32 12.8-44.8 10.667-10.667 27.733-14.933 44.8-10.667l241.067 64c8.533 2.133 17.067 2.133 25.6 0l309.333-100.267c6.4-2.133 12.8-2.133 21.333-2.133l266.667 34.133c12.8 2.133 25.6 8.533 32 19.2s10.667 25.6 6.4 38.4zM507.733 284.953c0 0 0 0 0 0 6.4 0 10.667 4.267 14.933 8.533 49.067 78.933 198.4 334.933 198.4 433.067 0 117.333-96 213.333-213.333 213.333s-213.333-96-213.333-213.333c0-98.133 149.333-354.133 198.4-433.067 4.267-4.267 10.667-8.533 14.933-8.533zM403.2 728.686c0 55.467 44.8 102.4 102.4 102.4 55.467 0 102.4-44.8 102.4-102.4 0-55.467-44.8-102.4-102.4-102.4s-102.4 44.8-102.4 102.4z" />
<glyph unicode="&#xe61c;" d="M111.659 429.038c7.061-2.816 14.955-2.731 21.931 0.256l169.003 72.299c10.645 4.544 17.493 15.104 17.365 26.688-0.149 11.584-7.253 21.973-18.005 26.283l-46.251 18.539c42.816 100.779 142.869 169.451 255.616 169.451 113.237 0 213.589-69.781 256.107-170.475 14.613-34.56 51.435-54.251 88.277-47.104l5.781 1.109c23.488 4.565 43.691 19.499 54.933 40.597 11.264 21.12 12.416 46.187 3.157 68.267-67.499 160.789-227.477 272.256-408.213 272.256-180.971 0-340.501-108.096-408.619-272.811l-42.048 16.853c-10.773 4.331-23.083 1.728-31.168-6.571-8.107-8.299-10.432-20.651-5.867-31.317l72.32-168.981c2.987-6.997 8.597-12.523 15.68-15.339zM993.941 293.614l-72.299 168.981c-3.029 6.997-8.64 12.523-15.701 15.339s-14.955 2.731-21.931-0.256l-169.003-72.299c-10.667-4.544-17.515-15.104-17.387-26.688 0.149-11.584 7.253-21.973 18.005-26.283l46.272-18.539c-42.837-100.779-142.891-169.451-255.637-169.451-113.237 0-213.589 69.781-256.107 170.475-14.613 34.56-51.435 54.251-88.256 47.104l-5.803-1.109c-23.488-4.565-43.691-19.499-54.933-40.597-11.264-21.12-12.395-46.187-3.136-68.267 67.541-160.811 227.499-272.277 408.256-272.277 180.992 0 340.523 108.096 408.619 272.811l42.069-16.853c10.752-4.331 23.061-1.728 31.147 6.571 8.064 8.32 10.389 20.672 5.824 31.339z" />
<glyph unicode="&#xe61d;" d="M622.826 262.75c-22.112 3.518-22.616 64.314-22.616 64.314s64.968 64.316 79.128 150.802c38.090 0 61.618 91.946 23.522 124.296 1.592 34.054 48.962 267.324-190.86 267.324s-192.45-233.27-190.864-267.324c-38.094-32.35-14.57-124.296 23.522-124.296 14.158-86.486 79.128-150.802 79.128-150.802s-0.504-60.796-22.614-64.314c-71.22-11.332-337.172-128.634-337.172-257.264h896c0 128.63-265.952 245.932-337.174 257.264z" />
<glyph unicode="&#xe61e;" d="M227.328 777.070l-50.176-52.224 18.432-46.080c24.576-61.44 23.552-137.216-1.024-209.92-55.296-160.768 12.288-262.144 229.376-343.040 30.72-12.288 60.416-27.648 67.584-34.816 9.216-12.288 18.432-10.24 54.272 9.216 23.552 13.312 68.608 33.792 99.328 46.080 69.632 27.648 146.432 82.944 173.056 125.952 34.816 57.344 36.864 99.328 6.144 200.704-23.552 82.944-25.6 99.328-16.384 145.408 6.144 27.648 18.432 65.536 27.648 82.944l16.384 32.768-52.224 50.176c-51.2 48.128-53.248 49.152-77.824 33.792-44.032-28.672-109.568-37.888-166.912-22.528-32.768 8.192-57.344 9.216-68.608 4.096-30.72-17.408-124.928-12.288-167.936 9.216l-40.96 20.48-50.176-52.224zM598.016 616.302c39.936-18.432 62.464-74.752 48.128-121.856-16.384-56.32-43.008-74.752-113.664-79.872l-61.44-4.096v-142.336l-37.888 3.072-38.912 3.072-3.072 177.152-2.048 176.128h91.136c51.2 0 103.424-5.12 117.76-11.264zM471.040 521.070c0-47.104 0-47.104 34.816-47.104 40.96 0 60.416 19.456 55.296 58.368-3.072 25.6-7.168 28.672-46.080 31.744l-44.032 3.072v-46.080z" />
<glyph unicode="&#xe61f;" d="M1024 640l-512 256-512-256 512-256 512 256zM512 811.030l342.058-171.030-342.058-171.030-342.058 171.030 342.058 171.030zM921.444 499.278l102.556-51.278-512-256-512 256 102.556 51.278 409.444-204.722zM921.444 307.278l102.556-51.278-512-256-512 256 102.556 51.278 409.444-204.722z" />
<glyph unicode="&#xe620;" d="M882.789 677.996c-27.284-12.1-56.608-20.279-87.382-23.957 31.413 18.83 55.537 48.645 66.896 84.173-29.401-17.436-61.959-30.098-96.615-36.921-27.751 29.569-67.296 48.044-111.052 48.044-84.023 0-152.146-68.116-152.146-152.138 0-11.924 1.346-23.537 3.939-34.674-126.445 6.348-238.551 66.916-313.59 158.969-13.101-22.473-20.602-48.605-20.602-76.489 0-52.785 26.859-99.355 67.681-126.638-24.94 0.795-48.399 7.634-68.911 19.031-0.007-0.635-0.007-1.27-0.007-1.914 0-73.716 52.446-135.204 122.043-149.184-12.764-3.474-26.208-5.338-40.083-5.338-9.804 0-19.334 0.957-28.627 2.734 19.361-60.441 75.548-104.432 142.124-105.658-52.068-40.806-117.671-65.13-188.957-65.13-12.282 0-24.393 0.721-36.294 2.129 67.328-43.169 147.303-68.364 233.221-68.364 279.849 0 432.877 231.833 432.877 432.884 0 6.598-0.149 13.158-0.439 19.683 29.733 21.451 55.524 48.245 75.917 78.755z" />
<glyph unicode="&#xe621;" d="M672 768c-88.366 0-160-71.634-160-160v-96h-128v-128h128v-448h128v448h144l32 128h-176v96c0 17.672 14.326 32 32 32h160v128h-160z" />
<glyph unicode="&#xf007;" d="M804.571 148q0-68.571-41.714-108.286t-110.857-39.714h-499.429q-69.143 0-110.857 39.714t-41.714 108.286q0 30.286 2 59.143t8 62.286 15.143 62 24.571 55.714 35.429 46.286 48.857 30.571 63.714 11.429q5.143 0 24-12.286t42.571-27.429 61.714-27.429 76.286-12.286 76.286 12.286 61.714 27.429 42.571 27.429 24 12.286q34.857 0 63.714-11.429t48.857-30.571 35.429-46.286 24.571-55.714 15.143-62 8-62.286 2-59.143zM621.714 658.286q0-90.857-64.286-155.143t-155.143-64.286-155.143 64.286-64.286 155.143 64.286 155.143 155.143 64.286 155.143-64.286 64.286-155.143z" horiz-adv-x="805" />
<glyph unicode="&#xf00d;" d="M741.714 195.428q0-22.857-16-38.857l-77.714-77.714q-16-16-38.857-16t-38.857 16l-168 168-168-168q-16-16-38.857-16t-38.857 16l-77.714 77.714q-16 16-16 38.857t16 38.857l168 168-168 168q-16 16-16 38.857t16 38.857l77.714 77.714q16 16 38.857 16t38.857-16l168-168 168 168q16 16 38.857 16t38.857-16l77.714-77.714q16-16 16-38.857t-16-38.857l-168-168 168-168q16-16 16-38.857z" horiz-adv-x="805" />
<glyph unicode="&#xf053;" d="M669.143 778.857l-303.429-303.429 303.429-303.429q10.857-10.857 10.857-25.714t-10.857-25.714l-94.857-94.857q-10.857-10.857-25.714-10.857t-25.714 10.857l-424 424q-10.857 10.857-10.857 25.714t10.857 25.714l424 424q10.857 10.857 25.714 10.857t25.714-10.857l94.857-94.857q10.857-10.857 10.857-25.714t-10.857-25.714z" horiz-adv-x="731" />
<glyph unicode="&#xf054;" d="M632.571 449.714l-424-424q-10.857-10.857-25.714-10.857t-25.714 10.857l-94.857 94.857q-10.857 10.857-10.857 25.714t10.857 25.714l303.429 303.429-303.429 303.429q-10.857 10.857-10.857 25.714t10.857 25.714l94.857 94.857q10.857 10.857 25.714 10.857t25.714-10.857l424-424q10.857-10.857 10.857-25.714t-10.857-25.714z" horiz-adv-x="731" />
<glyph unicode="&#xf057;" d="M656.571 309.714q0 14.857-10.857 25.714l-103.429 103.429 103.429 103.429q10.857 10.857 10.857 25.714 0 15.429-10.857 26.286l-51.429 51.429q-10.857 10.857-26.286 10.857-14.857 0-25.714-10.857l-103.429-103.429-103.429 103.429q-10.857 10.857-25.714 10.857-15.429 0-26.286-10.857l-51.429-51.429q-10.857-10.857-10.857-26.286 0-14.857 10.857-25.714l103.429-103.429-103.429-103.429q-10.857-10.857-10.857-25.714 0-15.429 10.857-26.286l51.429-51.429q10.857-10.857 26.286-10.857 14.857 0 25.714 10.857l103.429 103.429 103.429-103.429q10.857-10.857 25.714-10.857 15.429 0 26.286 10.857l51.429 51.429q10.857 10.857 10.857 26.286zM877.714 438.857q0-119.429-58.857-220.286t-159.714-159.714-220.286-58.857-220.286 58.857-159.714 159.714-58.857 220.286 58.857 220.286 159.714 159.714 220.286 58.857 220.286-58.857 159.714-159.714 58.857-220.286z" />
<glyph unicode="&#xf1b9;" d="M274.286 329.143q0 37.714-26.857 64.571t-64.571 26.857-64.571-26.857-26.857-64.571 26.857-64.571 64.571-26.857 64.571 26.857 26.857 64.571zM294.857 512h580.571l-50.857 204q-1.143 4.571-8 10t-12 5.429h-438.857q-5.143 0-12-5.429t-8-10zM1078.857 329.143q0 37.714-26.857 64.571t-64.571 26.857-64.571-26.857-26.857-64.571 26.857-64.571 64.571-26.857 64.571 26.857 26.857 64.571zM1170.286 384v-219.429q0-8-5.143-13.143t-13.143-5.143h-54.857v-73.143q0-45.714-32-77.714t-77.714-32-77.714 32-32 77.714v73.143h-585.143v-73.143q0-45.714-32-77.714t-77.714-32-77.714 32-32 77.714v73.143h-54.857q-8 0-13.143 5.143t-5.143 13.143v219.429q0 53.143 37.429 90.571t90.571 37.429h16l60 239.429q13.143 53.714 59.429 90t102.286 36.286h438.857q56 0 102.286-36.286t59.429-90l60-239.429h16q53.143 0 90.571-37.429t37.429-90.571z" horiz-adv-x="1170" />
<glyph unicode="&#xf1c5;" d="M838.857 733.714q16-16 27.429-43.429t11.429-50.286v-658.286q0-22.857-16-38.857t-38.857-16h-768q-22.857 0-38.857 16t-16 38.857v914.286q0 22.857 16 38.857t38.857 16h512q22.857 0 50.286-11.429t43.429-27.429zM585.143 873.143v-214.857h214.857q-5.714 16.571-12.571 23.429l-178.857 178.857q-6.857 6.857-23.429 12.571zM804.571 0v585.143h-237.714q-22.857 0-38.857 16t-16 38.857v237.714h-438.857v-877.714h731.429zM731.429 256v-182.857h-585.143v109.714l109.714 109.714 73.143-73.143 219.429 219.429zM256 365.714q-45.714 0-77.714 32t-32 77.714 32 77.714 77.714 32 77.714-32 32-77.714-32-77.714-77.714-32z" />
<glyph unicode="&#xf1c8;" d="M838.857 733.714q16-16 27.429-43.429t11.429-50.286v-658.286q0-22.857-16-38.857t-38.857-16h-768q-22.857 0-38.857 16t-16 38.857v914.286q0 22.857 16 38.857t38.857 16h512q22.857 0 50.286-11.429t43.429-27.429zM585.143 873.143v-214.857h214.857q-5.714 16.571-12.571 23.429l-178.857 178.857q-6.857 6.857-23.429 12.571zM804.571 0v585.143h-237.714q-22.857 0-38.857 16t-16 38.857v237.714h-438.857v-877.714h731.429zM438.857 512q29.714 0 51.429-21.714t21.714-51.429v-219.429q0-29.714-21.714-51.429t-51.429-21.714h-219.429q-29.714 0-51.429 21.714t-21.714 51.429v219.429q0 29.714 21.714 51.429t51.429 21.714h219.429zM720 510.857q11.429-4.571 11.429-17.143v-329.143q0-12.571-11.429-17.143-4.571-1.143-6.857-1.143-8 0-13.143 5.143l-151.429 152v51.429l151.429 152q5.143 5.143 13.143 5.143 2.286 0 6.857-1.143z" />
<glyph unicode="&#xf201;" d="M1170.286 73.143v-73.143h-1170.286v877.714h73.143v-804.571h1097.143zM1097.143 786.286v-248.571q0-12-11.143-16.857t-20.286 4.286l-69.143 69.143-361.714-361.714q-5.714-5.714-13.143-5.714t-13.143 5.714l-133.143 133.143-237.714-237.714-109.714 109.714 334.286 334.286q5.714 5.714 13.143 5.714t13.143-5.714l133.143-133.143 265.143 265.143-69.143 69.143q-9.143 9.143-4.286 20.286t16.857 11.143h248.571q8 0 13.143-5.143t5.143-13.143z" horiz-adv-x="1170" />
</font>
</defs>
</svg>
